<svg width="348" height="348" viewBox="0 0 348 348" fill="none" xmlns="http://www.w3.org/2000/svg">
<path d="M233.371 157.971C233.331 158.394 233.307 158.82 233.307 159.253V159.629C233.307 159.629 233.307 159.83 233.307 159.929C233.307 160.028 233.307 160.13 233.307 160.229L233.327 160.495L233.368 160.836C233.368 160.965 233.406 161.095 233.423 161.225L233.464 161.443C233.464 161.532 233.491 161.617 233.511 161.706C233.552 161.896 233.593 162.087 233.644 162.275C233.654 162.332 233.669 162.388 233.689 162.442C233.712 162.541 233.74 162.64 233.767 162.735C233.794 162.831 233.825 162.93 233.863 163.029C233.958 163.329 234.067 163.622 234.18 163.909C234.245 164.055 234.306 164.199 234.371 164.338C234.38 164.362 234.39 164.384 234.401 164.407C234.429 164.468 234.456 164.529 234.487 164.587C234.517 164.645 234.541 164.703 234.572 164.758C234.603 164.812 234.647 164.904 234.684 164.976C234.722 165.048 234.756 165.106 234.787 165.17C234.862 165.31 234.94 165.447 235.026 165.58L235.145 165.767C235.227 165.9 235.312 166.03 235.401 166.16C235.489 166.289 235.609 166.46 235.718 166.606L235.752 166.647C235.851 166.777 235.95 166.906 236.052 167.029C236.082 167.062 236.111 167.096 236.137 167.131C236.229 167.241 236.321 167.346 236.42 167.452L236.461 167.5C236.587 167.636 236.71 167.766 236.836 167.895L237.177 168.216C237.235 168.264 237.29 168.315 237.341 168.363C237.45 168.458 237.559 168.554 237.682 168.642L237.911 168.83L237.972 168.878L238.313 169.13C238.356 169.163 238.4 169.194 238.446 169.222C238.46 169.236 238.476 169.248 238.494 169.256C238.569 169.314 238.651 169.369 238.733 169.423L239.074 169.642C239.145 169.689 239.224 169.734 239.299 169.775L239.514 169.897C239.587 169.945 239.664 169.988 239.742 170.027L239.81 170.061C239.926 170.126 240.052 170.187 240.172 170.249L240.254 170.283C240.38 170.347 240.509 170.405 240.639 170.46C240.696 170.488 240.754 170.513 240.813 170.535C240.929 170.586 241.055 170.634 241.178 170.682L241.4 170.76C241.454 170.784 241.519 170.804 241.58 170.825C241.768 170.89 241.959 170.951 242.15 171.002C242.249 171.033 242.348 171.057 242.443 171.081C242.733 171.159 243.033 171.224 243.33 171.275L243.582 171.319L243.961 171.371C244.196 171.401 244.438 171.425 244.68 171.439H244.721C244.977 171.456 245.233 171.463 245.492 171.463H281.642C282.103 171.463 282.566 171.463 283.006 171.483H283.392C284.094 171.508 284.791 171.549 285.482 171.606L285.803 171.633L286.028 171.654L286.512 171.701L287.065 171.763C287.235 171.78 287.406 171.8 287.573 171.824C287.962 171.872 288.354 171.926 288.739 171.988L289.292 172.073H289.363L289.861 172.158C290.291 172.233 290.724 172.315 291.154 172.407L291.979 172.585L292.808 172.776C293.319 172.902 293.831 173.035 294.332 173.178L294.441 173.209C294.646 173.263 294.847 173.321 295.045 173.383C295.386 173.485 295.727 173.594 296.068 173.703L296.614 173.884C296.928 173.99 297.248 174.099 297.562 174.225C297.876 174.351 298.166 174.443 298.459 174.566H298.496C298.807 174.686 299.117 174.808 299.424 174.934C299.731 175.061 300.038 175.19 300.338 175.323C300.638 175.456 300.836 175.542 301.085 175.664C301.204 175.712 301.313 175.767 301.426 175.818H301.443C301.682 175.927 301.914 176.036 302.149 176.159C302.742 176.445 303.326 176.749 303.905 177.063C304.36 177.313 304.815 177.57 305.27 177.833C305.471 177.949 305.665 178.065 305.86 178.174L306.371 178.488C307.626 179.266 308.837 180.099 310.003 180.988L310.464 181.346C311.231 181.946 311.988 182.57 312.718 183.218C312.851 183.338 312.987 183.457 313.117 183.58L313.315 183.757C313.458 183.89 313.601 184.02 313.741 184.156C313.881 184.293 313.987 184.388 314.113 184.497C314.945 185.293 315.741 186.118 316.5 186.973C316.667 187.157 316.841 187.345 316.998 187.532L317.301 187.874L317.772 188.426C317.97 188.672 318.174 188.917 318.372 189.169C318.979 189.931 319.558 190.71 320.108 191.506C320.258 191.714 320.401 191.922 320.541 192.133C320.623 192.252 320.702 192.375 320.783 192.498C320.92 192.699 321.049 192.9 321.182 193.105C325.993 200.642 328.545 209.4 328.535 218.342V219.471C328.535 219.471 328.515 220.218 328.494 220.593C328.474 220.968 328.491 221.374 328.491 221.746C328.491 222.117 328.433 222.486 328.399 222.854C328.368 223.161 328.337 223.468 328.303 223.771C328.303 223.898 328.273 224.02 328.256 224.147C328.221 224.447 328.184 224.747 328.14 225.047L327.976 226.111C327.978 226.121 327.978 226.131 327.976 226.142C327.918 226.483 327.853 226.854 327.785 227.206C327.746 227.417 327.705 227.629 327.662 227.84C327.625 228.031 327.58 228.222 327.543 228.413C327.475 228.72 327.406 229.027 327.331 229.334C327.256 229.641 327.168 230.016 327.076 230.357C326.984 230.698 326.878 231.104 326.772 231.472C326.666 231.84 326.571 232.137 326.472 232.465C326.373 232.792 326.261 233.123 326.131 233.447C326.133 233.459 326.133 233.472 326.131 233.484C326.018 233.825 325.896 234.166 325.79 234.483C325.792 234.499 325.792 234.515 325.79 234.531C325.667 234.855 325.551 235.176 325.425 235.493C325.299 235.81 325.173 236.127 325.043 236.441C325.034 236.461 325.026 236.481 325.019 236.502C324.879 236.823 324.746 237.144 324.603 237.457C324.46 237.771 324.31 238.102 324.16 238.422C324.034 238.682 323.911 238.944 323.781 239.2C323.74 239.292 323.693 239.381 323.648 239.473C323.536 239.688 323.43 239.899 323.307 240.111C323.232 240.261 323.15 240.411 323.068 240.557L322.833 240.987C322.751 241.141 322.666 241.294 322.577 241.444C322.489 241.594 322.369 241.816 322.264 242C322.189 242.13 322.113 242.259 322.032 242.385C321.919 242.57 321.8 242.75 321.691 242.941C321.64 243.035 321.584 243.126 321.523 243.214C321.373 243.463 321.213 243.709 321.053 243.951C320.862 244.244 320.671 244.537 320.473 244.827C320.275 245.117 320.088 245.383 319.893 245.656C319.279 246.522 318.631 247.366 317.949 248.186C317.728 248.456 317.506 248.722 317.267 248.988C317.029 249.254 316.814 249.516 316.585 249.776C316.357 250.035 316.029 250.39 315.739 250.69C315.45 250.99 315.136 251.321 314.825 251.628C313.891 252.562 312.919 253.459 311.906 254.308C311.483 254.649 311.054 255.014 310.617 255.352C310.511 255.44 310.395 255.526 310.276 255.607L310.204 255.662C309.768 256.001 309.326 256.328 308.878 256.644C308.694 256.777 308.503 256.91 308.315 257.04L307.923 257.309C307.408 257.65 306.9 257.991 306.354 258.332C306.136 258.472 305.911 258.609 305.672 258.742H305.655C305.382 258.902 305.109 259.062 304.826 259.219C304.543 259.376 304.263 259.536 303.974 259.69C303.684 259.843 303.411 259.993 303.121 260.14L303.087 260.16L302.221 260.593C301.757 260.819 301.29 261.037 300.812 261.248C300.614 261.34 300.406 261.429 300.202 261.518C299.721 261.722 299.243 261.92 298.759 262.108C298.537 262.196 298.319 262.278 298.097 262.36L297.443 262.602L296.682 262.865C296.143 263.046 295.604 263.206 295.055 263.38C294.823 263.448 294.592 263.516 294.353 263.581C294.114 263.646 293.879 263.714 293.637 263.775C293.395 263.837 293.152 263.902 292.91 263.96L292.272 264.113C290.089 264.613 287.872 264.955 285.639 265.136L285.063 265.18C284.855 265.18 284.64 265.211 284.432 265.221C284.009 265.249 283.583 265.266 283.156 265.279C282.672 265.279 282.188 265.3 281.7 265.3H250.853C249.686 265.297 248.528 265.515 247.443 265.944C247.33 265.985 247.228 266.03 247.122 266.077L246.901 266.176C246.802 266.221 246.706 266.268 246.611 266.32C246.515 266.371 246.467 266.391 246.396 266.432C246.125 266.577 245.862 266.736 245.608 266.91C245.516 266.971 245.424 267.039 245.328 267.107C245.117 267.261 244.916 267.425 244.718 267.595C244.7 267.607 244.683 267.622 244.67 267.639C244.585 267.711 244.506 267.786 244.421 267.864C244.404 267.885 244.385 267.903 244.363 267.919L244.165 268.12C244.032 268.257 243.903 268.396 243.783 268.536C243.664 268.676 243.609 268.744 243.524 268.85C243.432 268.959 243.345 269.073 243.265 269.191C243.011 269.54 242.783 269.907 242.583 270.289C242.572 270.3 242.564 270.313 242.559 270.327C242.511 270.426 242.457 270.528 242.412 270.63C242.334 270.791 242.262 270.971 242.194 271.118L242.044 271.517C242.003 271.647 241.955 271.78 241.918 271.913C241.916 271.931 241.916 271.949 241.918 271.967C241.874 272.1 241.839 272.233 241.805 272.37C241.771 272.506 241.741 272.656 241.71 272.803C241.683 272.946 241.659 273.093 241.631 273.239C241.63 273.251 241.63 273.262 241.631 273.273C241.631 273.413 241.597 273.56 241.584 273.703C241.57 273.846 241.556 273.955 241.55 274.082C241.543 274.208 241.55 274.423 241.55 274.6V309.393H85.7659V274.624C85.7659 274.372 85.7659 274.126 85.7318 273.88C85.3464 269.045 81.3135 265.314 76.4624 265.307H58.1485C57.4664 265.307 56.7923 265.292 56.1261 265.262C55.7851 265.262 55.4713 265.228 55.144 265.208C54.8166 265.187 54.5676 265.167 54.2879 265.143C53.906 265.112 53.5342 265.075 53.1591 265.034C52.8624 265.003 52.5759 264.966 52.2826 264.928L51.9893 264.891L51.3482 264.798L51.1504 264.768C50.8468 264.72 50.5501 264.672 50.2466 264.618C28.6852 260.795 12.9757 242.051 12.9812 220.153V216.603C12.9753 214.58 13.0892 212.559 13.3222 210.549C13.6206 207.932 14.156 205.348 14.9217 202.828C15.9581 199.41 17.4652 196.152 19.3995 193.149C21.5397 189.843 24.1565 186.872 27.165 184.33C33.7335 178.723 41.4069 175.511 47.474 173.696C53.8073 171.786 58.1397 165.95 58.1349 159.335V144.671C58.133 133.642 66.482 124.402 77.4548 123.291C77.8731 123.248 78.296 123.217 78.7235 123.199C79.0236 123.199 79.3271 123.178 79.6272 123.178C88.2449 123.176 95.424 116.572 96.1438 107.985C96.1745 107.531 96.1983 107.071 96.1983 106.621C96.1965 97.4695 88.7784 90.0515 79.6272 90.0496H73.4885C63.2276 90.1618 53.6978 84.752 48.5346 75.8841C43.3715 67.0161 43.3715 56.0578 48.5346 47.1898C53.6978 38.3219 63.2276 32.9121 73.4885 33.0243H249.465C267.908 33.0262 282.858 47.9764 282.86 66.4189C282.863 78.769 292.373 89.0352 304.686 89.9814C305.283 90.0257 305.88 90.0496 306.484 90.0496C314.048 90.0385 321.305 93.0446 326.646 98.4017C327.552 99.3094 328.396 100.277 329.173 101.297C332.961 106.255 335.008 112.324 334.998 118.564C334.998 119.168 334.974 119.771 334.94 120.365C334.51 127.293 331.56 133.824 326.646 138.726L326.1 139.258L325.551 139.763C325.367 139.93 325.173 140.104 324.985 140.258C324.797 140.411 324.644 140.547 324.467 140.687C324.238 140.878 324.01 141.062 323.785 141.24C323.617 141.369 323.444 141.495 323.273 141.622C323.038 141.796 322.792 141.963 322.547 142.133C322.379 142.249 322.206 142.362 322.035 142.474L321.963 142.525C321.8 142.631 321.622 142.733 321.466 142.836C321.21 142.996 320.951 143.153 320.685 143.303C320.419 143.453 320.241 143.552 320.023 143.671C319.805 143.791 319.576 143.91 319.341 144.012C319.106 144.115 318.887 144.241 318.659 144.353C318.43 144.466 318.205 144.565 317.977 144.664C317.969 144.667 317.96 144.667 317.953 144.664C317.731 144.766 317.499 144.862 317.271 144.954H317.24C317.012 145.046 316.78 145.138 316.558 145.226C315.876 145.489 315.143 145.728 314.423 145.936L314.048 146.042L313.557 146.171C313.342 146.229 313.127 146.277 312.916 146.328C312.51 146.42 312.101 146.505 311.688 146.58L311.05 146.69L310.552 146.765L310.3 146.799L309.7 146.874C309.324 146.915 308.943 146.952 308.557 146.976C308.329 146.976 308.1 147.007 307.875 147.017L307.251 147.041C307.005 147.041 306.76 147.041 306.511 147.041H245.502C245.253 147.041 245.004 147.041 244.755 147.065L244.438 147.089L243.947 147.14C243.8 147.16 243.654 147.177 243.504 147.204C243.354 147.232 243.207 147.256 243.06 147.286L242.914 147.317C242.822 147.337 242.723 147.358 242.627 147.385C242.532 147.413 242.436 147.43 242.341 147.457C242.245 147.484 242.143 147.508 242.048 147.539L241.826 147.607C241.712 147.641 241.598 147.679 241.485 147.719L241.263 147.798C240.97 147.904 240.683 148.02 240.404 148.139L240.008 148.33C239.21 148.734 238.459 149.225 237.767 149.793C237.628 149.902 237.501 150.015 237.368 150.134C237.235 150.253 237.109 150.366 236.99 150.475C236.871 150.584 236.744 150.717 236.628 150.843C236.516 150.963 236.407 151.086 236.287 151.208L236.263 151.229C236.263 151.229 236.246 151.246 236.246 151.256C236.154 151.352 236.076 151.45 235.991 151.553C235.905 151.655 235.806 151.788 235.718 151.911C234.398 153.68 233.587 155.775 233.371 157.971Z" fill="#F3F4FE"/>
<path d="M236.437 144.691C236.44 146.902 236.244 149.108 235.851 151.283C235.816 151.512 235.772 151.74 235.728 151.965C234.414 153.718 233.6 155.793 233.371 157.971C233.33 158.394 233.306 158.82 233.306 159.253V159.629C232.84 160.686 232.329 161.716 231.772 162.718C231.353 163.471 230.909 164.208 230.438 164.928C229.777 165.949 229.068 166.931 228.314 167.875C221.941 175.864 212.555 180.871 202.371 181.714C201.348 181.796 200.324 181.84 199.284 181.84C192.712 181.846 186.256 180.104 180.578 176.793C179.607 176.227 178.664 175.618 177.748 174.965C171.938 170.823 167.44 165.1 164.788 158.476C164.326 157.322 163.923 156.145 163.581 154.949C162.061 149.629 161.742 144.038 162.646 138.58C155.957 134.132 152.061 126.526 152.36 118.499C152.658 110.471 157.108 103.176 164.109 99.2372C167.077 97.5677 170.38 96.5809 173.778 96.3486C174.313 96.3111 174.852 96.2906 175.401 96.2906C183.615 96.2845 191.211 100.652 195.338 107.753C196.648 107.615 197.964 107.545 199.281 107.545C209.138 107.531 218.595 111.44 225.566 118.409C232.537 125.378 236.448 134.834 236.437 144.691Z" fill="#C5CAEF"/>
<circle cx="289.753" cy="107.542" r="23.0782" fill="#C5CAEF"/>
<path d="M223.222 91.3285C216.725 101.264 203.752 104.651 193.227 99.16C182.702 93.6687 178.059 81.0897 182.492 70.0773C186.925 59.0649 198.988 53.2107 210.382 56.5424C214.673 46.1078 224.926 39.3738 236.207 39.5802C247.488 39.7866 257.487 46.8912 261.394 57.4758C265.301 68.0604 262.315 79.9579 253.874 87.4441C245.433 94.9302 233.264 96.4724 223.222 91.3285Z" fill="#C5CAEF"/>
<path d="M174.167 202.518C174.17 212.939 168.255 222.458 158.91 227.07C149.566 231.683 138.413 230.589 130.142 224.249C127.382 230.593 121.171 234.742 114.253 234.862C118.538 243.724 117.736 254.204 112.153 262.312C106.57 270.419 97.0646 274.906 87.257 274.063C77.4494 273.22 68.8488 267.178 64.7306 258.237C62.7481 257.238 60.896 255.998 59.216 254.547C56.7344 258.329 53.7074 261.724 50.233 264.621C28.6757 260.792 12.9729 242.048 12.9812 220.153V216.603C12.9753 214.58 13.0892 212.559 13.3222 210.549C13.6206 207.932 14.156 205.348 14.9217 202.828C15.9581 199.41 17.4652 196.152 19.3995 193.149C21.5397 189.843 24.1565 186.871 27.165 184.33C42.6758 186.444 56.0235 196.354 62.5343 210.59C73.3735 203.805 87.4663 205.429 96.478 214.502C97.2769 209.37 100.293 204.85 104.724 202.143C109.156 199.435 114.554 198.814 119.485 200.444C120.568 186.176 132.458 175.149 146.768 175.142C147.426 175.142 148.077 175.166 148.725 175.211C163.055 176.232 174.16 188.152 174.167 202.518Z" fill="#C5CAEF"/>
<path d="M233.371 157.971C233.331 158.394 233.307 158.82 233.307 159.253V159.629C233.307 159.629 233.307 159.83 233.307 159.929C233.307 160.028 233.307 160.13 233.307 160.229L233.327 160.495L233.368 160.836C233.368 160.965 233.406 161.095 233.423 161.225L233.464 161.443C233.464 161.532 233.491 161.617 233.511 161.706C233.552 161.896 233.593 162.087 233.644 162.275C233.654 162.332 233.669 162.388 233.689 162.442C233.712 162.541 233.74 162.64 233.767 162.735C233.794 162.831 233.825 162.93 233.863 163.029C233.958 163.329 234.067 163.622 234.18 163.909C234.245 164.055 234.306 164.199 234.371 164.338C234.38 164.362 234.39 164.384 234.401 164.407C234.429 164.468 234.456 164.529 234.487 164.587C234.517 164.645 234.541 164.703 234.572 164.758C234.603 164.812 234.647 164.904 234.684 164.976C234.722 165.048 234.756 165.106 234.787 165.17C234.862 165.31 234.94 165.447 235.026 165.58C235.062 165.645 235.101 165.707 235.145 165.767C235.227 165.9 235.312 166.03 235.401 166.159C235.489 166.289 235.609 166.46 235.718 166.606L235.752 166.647C235.851 166.777 235.95 166.906 236.052 167.029C236.082 167.062 236.111 167.096 236.137 167.131C236.229 167.241 236.321 167.346 236.42 167.452L236.461 167.5C236.587 167.636 236.71 167.766 236.836 167.895L237.177 168.216C237.235 168.264 237.29 168.315 237.341 168.363C237.45 168.458 237.559 168.554 237.682 168.642L237.911 168.83L237.972 168.878L238.313 169.13C238.356 169.163 238.4 169.194 238.446 169.222C238.46 169.236 238.476 169.248 238.494 169.256C238.57 169.317 238.65 169.373 238.733 169.423L239.074 169.642C239.145 169.689 239.224 169.734 239.299 169.775L239.514 169.897C239.587 169.944 239.664 169.988 239.742 170.027L239.81 170.061C239.926 170.129 240.052 170.191 240.172 170.249L240.254 170.283C240.38 170.347 240.509 170.405 240.639 170.46C240.696 170.488 240.754 170.513 240.813 170.535C240.929 170.586 241.055 170.634 241.178 170.682L241.4 170.76C241.454 170.784 241.519 170.804 241.58 170.825C241.768 170.89 241.959 170.951 242.15 171.002C242.249 171.033 242.348 171.057 242.443 171.081C242.733 171.159 243.033 171.224 243.33 171.275L243.582 171.319L243.961 171.371C244.196 171.401 244.438 171.425 244.68 171.439H244.721C244.977 171.456 245.233 171.463 245.492 171.463H281.642C282.103 171.463 282.566 171.463 283.006 171.483H283.392C284.094 171.508 284.791 171.549 285.482 171.606L285.803 171.633L286.028 171.654L286.512 171.701L287.065 171.763C287.235 171.78 287.406 171.8 287.573 171.824C287.962 171.872 288.354 171.926 288.739 171.988L289.292 172.073H289.363L289.861 172.158C290.291 172.233 290.724 172.315 291.154 172.407L291.979 172.585L292.808 172.776C293.319 172.902 293.831 173.035 294.332 173.178L294.441 173.209C294.646 173.263 294.847 173.321 295.045 173.383C295.386 173.485 295.727 173.594 296.068 173.703L296.614 173.884C296.928 173.99 297.248 174.099 297.562 174.225C297.876 174.351 298.166 174.443 298.459 174.566H298.496C298.807 174.685 299.117 174.808 299.424 174.934C299.731 175.061 300.038 175.19 300.338 175.323C300.638 175.456 300.836 175.541 301.085 175.664C301.204 175.712 301.313 175.767 301.426 175.818H301.443C301.682 175.927 301.914 176.036 302.149 176.159C302.742 176.445 303.326 176.749 303.905 177.063C304.36 177.313 304.815 177.57 305.27 177.833C305.471 177.949 305.665 178.065 305.86 178.174L306.371 178.488C307.626 179.266 308.837 180.099 310.003 180.988L310.464 181.346C311.231 181.946 311.988 182.57 312.718 183.218C312.851 183.338 312.987 183.457 313.117 183.58L313.315 183.757C313.458 183.89 313.601 184.02 313.741 184.156C313.881 184.293 313.987 184.388 314.113 184.497C314.945 185.293 315.741 186.118 316.5 186.973C316.667 187.157 316.841 187.345 316.998 187.532L317.301 187.873L317.772 188.426C317.97 188.672 318.174 188.917 318.372 189.169C318.979 189.931 319.558 190.71 320.108 191.506C320.258 191.714 320.401 191.922 320.541 192.133C320.623 192.252 320.702 192.375 320.783 192.498C320.92 192.699 321.049 192.9 321.182 193.105C325.993 200.642 328.545 209.4 328.535 218.342V219.471C328.535 219.471 328.515 220.218 328.494 220.593C328.474 220.968 328.491 221.374 328.491 221.746C328.491 222.117 328.433 222.486 328.399 222.854C328.368 223.161 328.337 223.468 328.303 223.771C328.303 223.898 328.273 224.02 328.256 224.147C328.221 224.447 328.184 224.747 328.14 225.047L327.976 226.111C327.978 226.121 327.978 226.131 327.976 226.142C327.918 226.483 327.853 226.854 327.785 227.206C327.746 227.417 327.705 227.629 327.662 227.84C327.625 228.031 327.58 228.222 327.543 228.413C327.475 228.72 327.406 229.027 327.331 229.334C327.256 229.641 327.168 230.016 327.076 230.357C326.984 230.698 326.878 231.104 326.772 231.472C326.666 231.84 326.571 232.137 326.472 232.464C326.373 232.792 326.261 233.123 326.131 233.447C326.133 233.459 326.133 233.472 326.131 233.484C326.018 233.825 325.896 234.166 325.79 234.483C325.792 234.499 325.792 234.515 325.79 234.531C325.667 234.855 325.551 235.176 325.425 235.493C325.299 235.81 325.173 236.127 325.043 236.441C325.034 236.461 325.026 236.481 325.019 236.502C324.879 236.823 324.746 237.144 324.603 237.457C324.46 237.771 324.31 238.102 324.16 238.422C324.034 238.682 323.911 238.944 323.781 239.2C323.74 239.292 323.693 239.381 323.648 239.473C323.536 239.688 323.43 239.899 323.307 240.111C323.232 240.261 323.15 240.411 323.068 240.557L322.833 240.987C322.751 241.141 322.666 241.294 322.577 241.444C322.489 241.594 322.369 241.816 322.264 242C322.158 242.184 322.103 242.276 322.018 242.413L321.677 242.958C321.626 243.044 321.575 243.129 321.517 243.214C321.367 243.463 321.206 243.709 321.046 243.951C320.855 244.244 320.664 244.537 320.466 244.827C320.268 245.117 320.081 245.383 319.887 245.656C319.273 246.522 318.625 247.366 317.943 248.186C317.721 248.456 317.499 248.722 317.26 248.988C317.022 249.254 316.807 249.516 316.578 249.776C316.35 250.035 316.023 250.39 315.733 250.69C315.443 250.99 315.16 251.286 314.87 251.58C313.919 252.532 312.928 253.442 311.896 254.308C311.476 254.649 311.043 255.014 310.61 255.352C310.504 255.44 310.389 255.526 310.269 255.607L310.198 255.662C309.761 256.001 309.319 256.328 308.871 256.644C308.687 256.777 308.496 256.91 308.308 257.04L307.916 257.309C307.401 257.65 306.893 257.991 306.347 258.332C306.129 258.472 305.904 258.609 305.665 258.742H305.648C305.375 258.902 305.102 259.062 304.819 259.219C304.536 259.376 304.257 259.536 303.967 259.69C303.677 259.843 303.404 259.993 303.114 260.14L303.08 260.16L302.214 260.593C301.75 260.819 301.283 261.037 300.805 261.248C300.608 261.34 300.399 261.429 300.195 261.518C299.714 261.722 299.237 261.92 298.752 262.108C298.531 262.196 298.312 262.278 298.091 262.36L297.436 262.602L296.675 262.865C296.136 263.046 295.598 263.206 295.049 263.38C294.817 263.448 294.585 263.516 294.346 263.581C294.107 263.646 293.872 263.714 293.63 263.775C293.388 263.837 293.146 263.902 292.903 263.96L292.266 264.113C290.082 264.613 287.865 264.955 285.632 265.136L285.056 265.18C284.848 265.18 284.633 265.211 284.425 265.221C284.002 265.249 283.576 265.266 283.15 265.279C282.665 265.279 282.181 265.3 281.693 265.3H250.853C249.686 265.297 248.528 265.515 247.443 265.944C247.33 265.985 247.228 266.03 247.122 266.077L246.901 266.176C246.802 266.221 246.706 266.268 246.611 266.32C246.515 266.371 246.467 266.391 246.396 266.432C246.125 266.577 245.862 266.736 245.608 266.91L245.328 267.107C245.117 267.261 244.916 267.424 244.718 267.595C244.7 267.607 244.683 267.622 244.67 267.639C244.585 267.711 244.506 267.786 244.421 267.864C244.404 267.885 244.385 267.903 244.363 267.919L244.165 268.12C244.032 268.257 243.903 268.396 243.783 268.536C243.664 268.676 243.606 268.744 243.524 268.85C243.432 268.959 243.345 269.073 243.265 269.191C243.011 269.54 242.783 269.907 242.583 270.289C242.572 270.3 242.564 270.313 242.559 270.327C242.508 270.426 242.457 270.528 242.412 270.63C242.334 270.791 242.262 270.971 242.194 271.118C242.126 271.265 242.095 271.381 242.044 271.517C241.993 271.653 241.955 271.78 241.918 271.913C241.916 271.931 241.916 271.949 241.918 271.967C241.874 272.1 241.839 272.233 241.805 272.37C241.771 272.506 241.737 272.659 241.71 272.803C241.679 272.946 241.655 273.093 241.631 273.239C241.63 273.251 241.63 273.262 241.631 273.273C241.631 273.413 241.597 273.56 241.584 273.703C241.57 273.846 241.556 273.955 241.55 274.082C241.543 274.208 241.55 274.423 241.55 274.6V309.393H85.7659V274.624C85.7659 274.371 85.7659 274.126 85.7318 273.88C79.4769 272.993 73.7236 269.963 69.454 265.307H58.1349C57.4528 265.307 56.7787 265.292 56.1125 265.262C55.7715 265.262 55.4577 265.228 55.1303 265.208C54.8029 265.187 54.554 265.167 54.2743 265.143C53.8923 265.112 53.5206 265.075 53.1455 265.034C52.8488 265.003 52.5623 264.966 52.269 264.928L51.9757 264.891L51.3345 264.798L51.1367 264.768C50.8332 264.72 50.5365 264.672 50.233 264.618C28.6769 260.789 12.9746 242.046 12.9812 220.153V216.603C12.9753 214.58 13.0892 212.559 13.3222 210.549C25.3676 214.025 33.6611 225.05 33.6618 237.587C33.6636 240.389 33.2475 243.175 32.4273 245.854H32.5091C39.2412 245.855 45.2218 250.152 47.3716 256.532C49.568 247.431 57.4665 240.843 66.8137 240.316C76.1609 239.789 84.7499 245.447 87.9554 254.243C88.9215 244.979 93.8612 236.59 101.494 231.252C109.127 225.913 118.701 224.151 127.734 226.421C127.607 225.424 127.543 224.419 127.54 223.413C127.542 222.515 127.592 221.618 127.69 220.726C128.325 214.984 130.996 209.66 135.22 205.72C138.716 202.444 143.109 200.284 147.839 199.517C147.088 196.637 146.648 193.685 146.526 190.711C146.492 190.097 146.478 189.476 146.478 188.856C146.478 187.938 146.512 187.028 146.563 186.127C147.361 173.73 153.588 162.316 163.581 154.936C163.973 154.643 164.376 154.353 164.788 154.073C168.735 151.353 173.118 149.329 177.748 148.088C178.682 147.839 179.624 147.621 180.578 147.436C182.587 147.046 184.622 146.806 186.666 146.717C186.536 145.884 186.45 145.045 186.407 144.203C186.407 143.927 186.383 143.651 186.383 143.371C186.391 141.384 186.667 139.406 187.201 137.492C186.792 137.335 186.393 137.174 185.994 137.004C184.117 136.214 182.311 135.265 180.596 134.167C179.62 133.546 178.675 132.874 177.765 132.161C168.981 125.311 163.85 114.79 163.861 103.65C163.861 103.415 163.861 103.183 163.861 102.951C163.881 101.708 163.968 100.467 164.123 99.2338C165.495 88.0592 171.989 78.1597 181.694 72.4519C190.823 67.0852 201.845 65.9848 211.855 69.4405C222.327 61.3723 236.385 59.7112 248.448 65.1168C260.512 70.5223 268.628 82.1199 269.576 95.305C269.788 95.2846 269.996 95.2675 270.2 95.2573C270.541 95.2334 270.91 95.2232 271.268 95.2232C274.981 95.221 278.586 96.4719 281.499 98.7734C283.763 100.559 285.525 102.901 286.615 105.57C293.753 100.779 302.108 98.1198 310.702 97.9037C311.101 97.9037 311.504 97.8867 311.913 97.8867C317.832 97.8791 323.694 99.032 329.17 101.28C332.958 106.238 335.005 112.307 334.995 118.547C334.995 119.151 334.971 119.754 334.937 120.348C334.507 127.276 331.557 133.807 326.643 138.709L326.097 139.241L325.548 139.746C325.364 139.913 325.169 140.087 324.982 140.24C324.794 140.394 324.641 140.53 324.463 140.67C324.235 140.861 324.006 141.045 323.781 141.223C323.614 141.352 323.44 141.478 323.27 141.605C323.034 141.779 322.789 141.946 322.543 142.116C322.376 142.232 322.202 142.345 322.032 142.457L321.96 142.508C321.796 142.614 321.619 142.716 321.462 142.819C321.206 142.979 320.947 143.136 320.681 143.286C320.415 143.436 320.238 143.535 320.02 143.654C319.801 143.774 319.573 143.893 319.337 143.995C319.102 144.098 318.884 144.224 318.655 144.336C318.427 144.449 318.202 144.548 317.973 144.647C317.966 144.65 317.957 144.65 317.949 144.647C317.728 144.749 317.496 144.844 317.267 144.937H317.237C317.008 145.029 316.776 145.121 316.555 145.209C315.872 145.472 315.139 145.711 314.42 145.919L314.044 146.024L313.553 146.154C313.345 146.209 313.141 146.256 312.936 146.304C312.52 146.4 312.104 146.488 311.684 146.563L311.047 146.672L310.549 146.747L310.296 146.782L309.696 146.857C309.321 146.898 308.939 146.935 308.554 146.959C308.325 146.959 308.097 146.99 307.872 147L307.248 147.024C307.002 147.024 306.756 147.024 306.508 147.024H245.502C245.243 147.024 244.987 147.024 244.732 147.051L244.435 147.071L243.968 147.119C243.814 147.14 243.661 147.16 243.504 147.187C243.347 147.215 243.207 147.239 243.06 147.269L242.914 147.3C242.822 147.32 242.723 147.341 242.627 147.368C242.532 147.395 242.436 147.413 242.341 147.44C242.245 147.467 242.143 147.491 242.048 147.522L241.826 147.59C241.712 147.624 241.598 147.661 241.485 147.702L241.263 147.781C240.97 147.89 240.68 148.009 240.397 148.122L240.008 148.309C239.21 148.714 238.459 149.204 237.767 149.773C237.628 149.882 237.501 149.994 237.368 150.114C237.235 150.233 237.109 150.345 236.99 150.455C236.871 150.564 236.744 150.697 236.628 150.823C236.516 150.942 236.403 151.062 236.287 151.188L236.263 151.208C236.263 151.208 236.246 151.225 236.246 151.236C236.154 151.331 236.076 151.43 235.991 151.532C235.905 151.635 235.806 151.768 235.718 151.89C234.395 153.665 233.584 155.768 233.371 157.971Z" fill="#C9CEF7"/>
<path opacity="0.36" d="M174.621 115.617C177.986 123.991 185.075 130.308 193.78 132.69C181.475 125.185 176.575 109.763 182.292 96.5321C188.01 83.3009 202.598 76.3004 216.497 80.1185C205.854 73.6279 192.25 74.6878 182.742 82.7484C173.233 90.809 169.96 104.056 174.621 115.617Z" fill="white"/>
<path opacity="0.36" d="M335.018 118.547C335.018 119.151 334.995 119.754 334.96 120.348C334.561 119.884 334.145 119.427 333.716 118.983C325.961 110.967 314.348 108.01 303.704 111.342C293.059 114.674 285.205 123.725 283.405 134.733C283.209 133.059 283.155 131.372 283.242 129.689C283.871 117.973 291.383 107.744 302.373 103.637C313.363 99.5301 325.742 102.326 333.9 110.758C333.92 110.778 333.941 110.795 333.958 110.816C334.662 113.332 335.019 115.933 335.018 118.547Z" fill="white"/>
<path d="M79.6337 90.0326H73.6587V81.2371L91.5633 63.3325V95.0902C88.4408 91.8511 84.1328 90.0247 79.6337 90.0326Z" fill="#D9DCFB"/>
<path d="M202.378 119.635V309.359H56.1123V166.869C57.4406 164.581 58.1384 161.981 58.1347 159.335V144.671C58.1328 133.642 66.4818 124.402 77.4546 123.291C77.8729 123.248 78.2958 123.217 78.7232 123.199C79.0234 123.199 79.3269 123.178 79.627 123.178C88.2446 123.176 95.4238 116.572 96.1436 107.985H99.6529V89.1902L115.283 85.6707L147.579 102.958H177.751L202.378 119.635Z" fill="#D9DCFB"/>
<path d="M90.1345 130.221V309.359H56.1123V166.869C57.4406 164.581 58.1384 161.981 58.1347 159.335V144.671C58.1328 133.642 66.4818 124.402 77.4546 123.291L90.1345 130.221Z" fill="#C5CAEF"/>
<path d="M164.785 102.955H177.755V309.359H164.785V102.955Z" fill="#C5CAEF"/>
<path d="M316.555 105.867V145.237C313.342 146.446 309.937 147.063 306.504 147.058H281.523V92.8973L316.555 105.867Z" fill="#D9DCFB"/>
<path d="M316.555 187V309.359H281.523V171.449H281.666C282.127 171.449 282.59 171.449 283.03 171.469H283.416C284.118 171.494 284.815 171.535 285.506 171.592L285.827 171.619L286.052 171.64L286.536 171.688L287.089 171.749C287.259 171.766 287.43 171.787 287.597 171.81C287.986 171.858 288.378 171.913 288.763 171.974L289.316 172.059H289.387L289.885 172.145C290.315 172.22 290.748 172.302 291.178 172.394L292.003 172.571L292.832 172.762C293.343 172.888 293.855 173.021 294.356 173.164L294.465 173.195C294.67 173.25 294.871 173.308 295.069 173.369C295.41 173.471 295.751 173.58 296.092 173.69L296.638 173.87C296.952 173.976 297.272 174.085 297.586 174.211C297.9 174.338 298.19 174.43 298.483 174.552H298.52C298.831 174.672 299.141 174.795 299.448 174.921C299.755 175.047 300.062 175.177 300.362 175.31C300.662 175.443 300.86 175.528 301.109 175.651C301.228 175.698 301.337 175.753 301.45 175.804H301.467C301.706 175.913 301.938 176.022 302.173 176.145C302.766 176.435 303.35 176.735 303.929 177.049C304.384 177.299 304.839 177.556 305.293 177.82C305.495 177.936 305.689 178.052 305.883 178.161L306.395 178.474C307.65 179.252 308.861 180.085 310.027 180.974L310.487 181.332C311.255 181.933 312.012 182.557 312.742 183.205C312.875 183.324 313.011 183.443 313.141 183.566L313.339 183.743C313.482 183.876 313.625 184.006 313.765 184.142C313.905 184.279 314.01 184.374 314.137 184.484C314.985 185.307 315.791 186.146 316.555 187Z" fill="#D9DCFB"/>
<path d="M281.523 117.78V147.061H264.321V128.103L281.523 117.78Z" fill="#C5CAEF"/>
<path d="M264.317 171.449H281.523V309.359H264.317V171.449Z" fill="#C5CAEF"/>
<path d="M233.372 157.971C233.331 158.394 233.307 158.82 233.307 159.253V159.629C233.307 159.629 233.307 159.83 233.307 159.929C233.307 160.028 233.307 160.13 233.307 160.229L233.327 160.495L233.368 160.836C233.368 160.965 233.406 161.095 233.423 161.225L233.464 161.443C233.464 161.532 233.491 161.617 233.511 161.706C233.552 161.897 233.593 162.087 233.644 162.275C233.654 162.332 233.669 162.388 233.689 162.442C233.713 162.541 233.74 162.64 233.767 162.735C233.794 162.831 233.825 162.93 233.863 163.029C233.958 163.329 234.067 163.622 234.18 163.909C234.245 164.055 234.306 164.199 234.371 164.338C234.436 164.478 234.5 164.618 234.572 164.758C234.644 164.898 234.671 164.956 234.726 165.051C234.746 165.092 234.77 165.13 234.787 165.171C234.862 165.31 234.94 165.447 235.026 165.58L235.145 165.767C235.227 165.9 235.312 166.03 235.401 166.16C235.489 166.289 235.609 166.46 235.718 166.606L235.752 166.647C235.851 166.777 235.95 166.906 236.052 167.029C236.083 167.062 236.111 167.096 236.137 167.131C236.23 167.241 236.322 167.346 236.42 167.452L236.461 167.5C236.588 167.636 236.71 167.766 236.837 167.895L237.178 168.216C237.236 168.264 237.29 168.315 237.341 168.363C237.45 168.458 237.56 168.554 237.682 168.642L237.911 168.83L237.972 168.878L238.313 169.13C238.356 169.163 238.4 169.194 238.446 169.222C238.46 169.236 238.476 169.248 238.494 169.256C238.569 169.314 238.651 169.369 238.733 169.423L239.074 169.642C239.145 169.689 239.224 169.734 239.299 169.775L239.514 169.897C239.588 169.945 239.664 169.988 239.742 170.027L239.81 170.061C239.926 170.126 240.053 170.187 240.172 170.249L240.254 170.283C240.38 170.347 240.51 170.405 240.639 170.46C240.696 170.488 240.754 170.513 240.813 170.535C240.929 170.586 241.055 170.634 241.178 170.682L241.4 170.76C241.454 170.784 241.519 170.804 241.58 170.825C241.768 170.89 241.959 170.951 242.15 171.002C242.249 171.033 242.348 171.057 242.443 171.081C242.733 171.159 243.033 171.224 243.33 171.275L243.582 171.319L243.961 171.371C244.196 171.401 244.438 171.425 244.68 171.439H244.721V309.359H228.321V111.426L244.732 104.544V147.089L244.435 147.109L243.968 147.157C243.814 147.177 243.661 147.198 243.504 147.225C243.347 147.252 243.207 147.276 243.061 147.307L242.914 147.338C242.822 147.358 242.723 147.378 242.627 147.406C242.532 147.433 242.436 147.45 242.341 147.477C242.245 147.505 242.143 147.529 242.048 147.559L241.826 147.627C241.712 147.662 241.599 147.699 241.485 147.74L241.263 147.818C240.97 147.928 240.68 148.047 240.397 148.159L240.008 148.347C239.21 148.751 238.459 149.242 237.768 149.81C237.628 149.919 237.502 150.032 237.369 150.151C237.236 150.27 237.109 150.383 236.99 150.492C236.871 150.601 236.744 150.734 236.629 150.86C236.516 150.98 236.407 151.103 236.287 151.225L236.264 151.246C236.264 151.246 236.247 151.263 236.247 151.273C236.154 151.369 236.076 151.468 235.991 151.57C235.906 151.672 235.807 151.805 235.718 151.928C234.401 153.692 233.59 155.781 233.372 157.971Z" fill="#D9DCFB"/>
<path d="M256.907 108.78V147.058H245.502C245.243 147.058 244.987 147.058 244.731 147.085V104.544L256.907 108.78Z" fill="#C5CAEF"/>
<path d="M245.502 171.449H256.907V309.359H244.731V171.425C244.987 171.442 245.243 171.449 245.502 171.449Z" fill="#C5CAEF"/>
<path d="M103.916 111.157H146.751V115.74H103.916V111.157Z" fill="#F3F4FE"/>
<path d="M198.872 137.427L180.585 136.833V113.448L198.872 125.743V137.427Z" fill="#F3F4FE"/>
<path d="M103.916 126.152H146.751V130.736H103.916V126.152Z" fill="#F3F4FE"/>
<path d="M103.916 141.151H146.751V145.735H103.916V141.151Z" fill="#F3F4FE"/>
<path d="M103.916 156.147H146.751V160.73H103.916V156.147Z" fill="#F3F4FE"/>
<path d="M103.916 171.146H146.751V175.729H103.916V171.146Z" fill="#F3F4FE"/>
<path d="M103.916 186.141H146.751V190.725H103.916V186.141Z" fill="#F3F4FE"/>
<path d="M103.916 201.14H146.751V205.724H103.916V201.14Z" fill="#F3F4FE"/>
<path d="M103.916 216.135H146.751V220.719H103.916V216.135Z" fill="#F3F4FE"/>
<path d="M103.916 231.131H146.751V235.715H103.916V231.131Z" fill="#F3F4FE"/>
<path d="M103.916 246.13H146.751V250.714H103.916V246.13Z" fill="#F3F4FE"/>
<path d="M103.916 261.125H146.751V265.709H103.916V261.125Z" fill="#F3F4FE"/>
<path d="M103.916 276.124H146.751V280.708H103.916V276.124Z" fill="#F3F4FE"/>
<path d="M103.916 291.12H146.751V295.704H103.916V291.12Z" fill="#F3F4FE"/>
<path d="M180.585 144.207H198.868V181.281H180.585V144.207Z" fill="#F3F4FE"/>
<path d="M180.585 189.814H198.868V226.888H180.585V189.814Z" fill="#F3F4FE"/>
<path d="M180.585 235.425H198.868V272.499H180.585V235.425Z" fill="#F3F4FE"/>
<path d="M180.585 278.413H198.868V300.996H180.585V278.413Z" fill="#F3F4FE"/>
<path d="M288.088 112.098H296.658V116.743H288.088V112.098Z" fill="#F3F4FE"/>
<path d="M230.445 122.605H242.371V109.011L230.445 114.608V122.605Z" fill="#F3F4FE"/>
<path d="M303.953 112.098H312.523V116.743H303.953V112.098Z" fill="#F3F4FE"/>
<path d="M288.088 124.317H296.658V128.962H288.088V124.317Z" fill="#F3F4FE"/>
<path d="M303.953 124.317H312.523V128.962H303.953V124.317Z" fill="#F3F4FE"/>
<path d="M288.088 136.537H296.658V141.182H288.088V136.537Z" fill="#F3F4FE"/>
<path d="M303.953 136.537H312.523V141.182H303.953V136.537Z" fill="#F3F4FE"/>
<path d="M296.662 173.898V177.84H288.088V173.192H294.387L294.496 173.222C294.701 173.277 294.902 173.335 295.1 173.396C295.441 173.499 295.782 173.608 296.123 173.717L296.662 173.898Z" fill="#F3F4FE"/>
<path d="M305.317 177.84H303.953V177.069C304.417 177.319 304.872 177.576 305.317 177.84Z" fill="#F3F4FE"/>
<path d="M288.088 185.411H296.658V190.056H288.088V185.411Z" fill="#F3F4FE"/>
<path d="M303.953 185.411H312.523V190.056H303.953V185.411Z" fill="#F3F4FE"/>
<path d="M288.088 197.631H296.658V202.276H288.088V197.631Z" fill="#F3F4FE"/>
<path d="M303.953 197.631H312.523V202.276H303.953V197.631Z" fill="#F3F4FE"/>
<path d="M288.088 209.85H296.658V214.495H288.088V209.85Z" fill="#F3F4FE"/>
<path d="M303.953 209.85H312.523V214.495H303.953V209.85Z" fill="#F3F4FE"/>
<path d="M288.088 222.07H296.658V226.715H288.088V222.07Z" fill="#F3F4FE"/>
<path d="M303.953 222.07H312.523V226.715H303.953V222.07Z" fill="#F3F4FE"/>
<path d="M288.088 234.289H296.658V238.934H288.088V234.289Z" fill="#F3F4FE"/>
<path d="M303.953 234.289H312.523V238.934H303.953V234.289Z" fill="#F3F4FE"/>
<path d="M288.088 246.508H296.658V251.153H288.088V246.508Z" fill="#F3F4FE"/>
<path d="M303.953 246.508H312.523V251.153H303.953V246.508Z" fill="#F3F4FE"/>
<path d="M288.088 258.724H296.658V263.369H288.088V258.724Z" fill="#F3F4FE"/>
<path d="M303.953 258.724H312.523V263.369H303.953V258.724Z" fill="#F3F4FE"/>
<path d="M288.088 270.944H296.658V275.589H288.088V270.944Z" fill="#F3F4FE"/>
<path d="M303.953 270.944H312.523V275.589H303.953V270.944Z" fill="#F3F4FE"/>
<path d="M288.088 283.163H296.658V287.808H288.088V283.163Z" fill="#F3F4FE"/>
<path d="M303.953 283.163H312.523V287.808H303.953V283.163Z" fill="#F3F4FE"/>
<path d="M288.088 295.383H296.658V300.028H288.088V295.383Z" fill="#F3F4FE"/>
<path d="M303.953 295.383H312.523V300.028H303.953V295.383Z" fill="#F3F4FE"/>
<path d="M230.445 126.64H242.368V133.324H230.445V126.64Z" fill="#F3F4FE"/>
<path d="M230.445 138.075H234.828V144.759H230.445V138.075Z" fill="#F3F4FE"/>
<path d="M237.989 138.075H242.372V144.759H237.989V138.075Z" fill="#F3F4FE"/>
<path d="M236.274 151.283C236.274 151.283 236.257 151.3 236.257 151.311C236.165 151.406 236.086 151.505 236.001 151.607C235.916 151.71 235.817 151.843 235.728 151.965C234.414 153.718 233.6 155.793 233.371 157.971H230.445V151.283H236.274Z" fill="#F3F4FE"/>
<path d="M234.824 165.153V169.406H230.445V162.718H233.805C234.053 163.565 234.395 164.382 234.824 165.153Z" fill="#F3F4FE"/>
<path d="M238.743 169.406H237.989V168.86C238.231 169.051 238.484 169.225 238.743 169.406Z" fill="#F3F4FE"/>
<path d="M230.445 175.93H242.368V182.615H230.445V175.93Z" fill="#F3F4FE"/>
<path d="M230.445 187.365H234.828V194.05H230.445V187.365Z" fill="#F3F4FE"/>
<path d="M237.989 187.365H242.372V194.05H237.989V187.365Z" fill="#F3F4FE"/>
<path d="M230.445 200.379H242.368V207.064H230.445V200.379Z" fill="#F3F4FE"/>
<path d="M230.445 211.815H234.828V218.499H230.445V211.815Z" fill="#F3F4FE"/>
<path d="M237.989 211.815H242.372V218.499H237.989V211.815Z" fill="#F3F4FE"/>
<path d="M230.445 224.829H242.368V231.513H230.445V224.829Z" fill="#F3F4FE"/>
<path d="M230.445 236.264H234.828V242.948H230.445V236.264Z" fill="#F3F4FE"/>
<path d="M237.989 236.264H242.372V242.948H237.989V236.264Z" fill="#F3F4FE"/>
<path d="M230.445 249.278H242.368V255.962H230.445V249.278Z" fill="#F3F4FE"/>
<path d="M230.445 260.713H234.828V267.397H230.445V260.713Z" fill="#F3F4FE"/>
<path d="M237.989 260.713H242.372V267.397H237.989V260.713Z" fill="#F3F4FE"/>
<path d="M230.445 273.727H242.368V280.411H230.445V273.727Z" fill="#F3F4FE"/>
<path d="M230.445 285.162H234.828V291.846H230.445V285.162Z" fill="#F3F4FE"/>
<path d="M237.989 285.162H242.372V291.846H237.989V285.162Z" fill="#F3F4FE"/>
<rect x="50.4443" y="315.382" width="25.2574" height="6.00571" rx="3.00285" transform="rotate(-180 50.4443 315.382)" fill="#7986BF"/>
<rect x="329.112" y="315.382" width="276.222" height="6.00571" rx="3.00285" transform="rotate(-180 329.112 315.382)" fill="#7986BF"/>
<circle cx="252.03" cy="300.584" r="8.7204" fill="#FF9F29"/>
<path d="M252.03 307.514C251.772 307.544 251.512 307.559 251.252 307.558C247.46 307.474 244.429 304.376 244.429 300.582C244.429 296.789 247.46 293.69 251.252 293.606C251.512 293.607 251.772 293.622 252.03 293.651C248.498 294.043 245.825 297.028 245.825 300.582C245.825 304.136 248.498 307.121 252.03 307.514Z" fill="#FFD42C"/>
<path d="M252.238 292.812C252.496 292.777 252.755 292.76 253.015 292.76C256.866 292.76 259.99 296.263 259.99 300.584C259.99 304.905 256.873 308.404 253.015 308.404C252.755 308.405 252.496 308.389 252.238 308.356C255.723 307.923 258.435 304.605 258.435 300.584C258.435 296.563 255.723 293.241 252.238 292.812H252.238Z" fill="#F07927"/>
<ellipse cx="252.03" cy="300.584" rx="4.48128" ry="4.48126" fill="#F07927"/>
<ellipse cx="252.03" cy="300.584" rx="2.25429" ry="2.25427" fill="#FFD42C"/>
<ellipse cx="123.523" cy="300.584" rx="8.7204" ry="8.7204" fill="#FF9F29"/>
<path d="M123.526 307.514C123.269 307.544 123.01 307.559 122.752 307.558C118.959 307.474 115.928 304.376 115.928 300.582C115.928 296.789 118.959 293.69 122.752 293.606C123.01 293.607 123.269 293.622 123.526 293.651C119.994 294.043 117.321 297.028 117.321 300.582C117.321 304.136 119.994 307.121 123.526 307.514Z" fill="#FFD42C"/>
<path d="M123.734 292.812C123.991 292.777 124.249 292.76 124.508 292.76C128.362 292.76 131.482 296.263 131.482 300.584C131.482 304.905 128.362 308.404 124.508 308.404C124.249 308.405 123.991 308.389 123.734 308.356C127.219 307.923 129.931 304.605 129.931 300.584C129.931 296.563 127.219 293.241 123.734 292.812Z" fill="#F07927"/>
<circle cx="123.522" cy="300.584" r="4.48126" fill="#F07927"/>
<circle cx="123.522" cy="300.584" r="2.25427" fill="#FFD42C"/>
<path d="M173.288 213.309C170.775 220.789 162.675 224.815 155.196 222.302L83.7305 198.293L92.8287 171.212L164.297 195.222C171.776 197.734 175.802 205.834 173.29 213.314L173.288 213.309Z" fill="#652682"/>
<path d="M177.777 154.955L201.874 170.76L171.839 216.554C167.475 223.208 158.542 225.064 151.888 220.7C145.234 216.335 143.378 207.403 147.742 200.749L177.777 154.955V154.955Z" fill="#652682"/>
<path d="M91.98 173.747L84.5848 195.759L75.646 192.756L83.0412 170.744L91.98 173.747Z" fill="#EA8681"/>
<path fill-rule="evenodd" clip-rule="evenodd" d="M187.648 162.64C187.717 162.677 187.794 162.697 187.872 162.698H187.853C188.042 162.709 188.22 162.609 188.31 162.442L190.182 159.005C190.266 158.851 190.261 158.665 190.17 158.516C190.078 158.367 189.915 158.277 189.74 158.282C189.565 158.286 189.406 158.384 189.323 158.537L187.45 161.975C187.322 162.213 187.41 162.511 187.648 162.64ZM184.129 169.577C184.046 169.576 183.965 169.555 183.893 169.515C183.657 169.386 183.57 169.09 183.699 168.854L185.571 165.413C185.711 165.195 185.994 165.123 186.221 165.247C186.447 165.371 186.539 165.649 186.431 165.883L184.558 169.321C184.468 169.48 184.295 169.575 184.112 169.567L184.129 169.577ZM180.139 176.387C180.21 176.429 180.292 176.451 180.375 176.452L180.372 176.452H180.377L180.375 176.452C180.55 176.45 180.712 176.354 180.797 176.2L182.669 172.762C182.753 172.609 182.748 172.422 182.657 172.273C182.565 172.124 182.402 172.035 182.227 172.039C182.052 172.044 181.893 172.141 181.81 172.295L179.941 175.722C179.812 175.961 179.901 176.258 180.139 176.387ZM176.626 183.331C176.543 183.33 176.463 183.309 176.39 183.269C176.154 183.14 176.067 182.844 176.196 182.608L178.068 179.167C178.208 178.95 178.491 178.877 178.718 179.001C178.944 179.125 179.036 179.403 178.928 179.637L177.069 183.075C176.982 183.237 176.81 183.336 176.626 183.331ZM172.864 190.199C172.783 190.2 172.703 190.18 172.632 190.141C172.513 190.079 172.425 189.972 172.387 189.843C172.35 189.714 172.367 189.575 172.434 189.459L174.341 186.046C174.424 185.892 174.583 185.795 174.758 185.79C174.933 185.786 175.096 185.875 175.188 186.024C175.279 186.173 175.284 186.359 175.2 186.513L173.318 189.95C173.231 190.11 173.063 190.209 172.881 190.206L172.864 190.199ZM95.97 190.537C96.0212 190.556 96.0756 190.566 96.1303 190.564L96.1337 190.571C96.3417 190.569 96.5252 190.434 96.5907 190.237C96.6793 189.982 96.5452 189.703 96.2906 189.613L92.5903 188.331C92.4252 188.273 92.2421 188.308 92.1099 188.423C91.9778 188.537 91.9167 188.713 91.9497 188.885C91.9826 189.057 92.1046 189.197 92.2697 189.255L95.97 190.537ZM103.527 193.129C103.473 193.128 103.419 193.119 103.367 193.102L99.6667 191.819C99.5016 191.762 99.3796 191.621 99.3466 191.45C99.3137 191.278 99.3748 191.102 99.5069 190.987C99.6391 190.873 99.8222 190.838 99.9873 190.895L103.688 192.174C103.914 192.253 104.05 192.483 104.01 192.719C103.971 192.955 103.767 193.128 103.527 193.129ZM169.137 197.078C169.054 197.078 168.973 197.057 168.901 197.017C168.665 196.888 168.578 196.592 168.707 196.355L170.59 192.921C170.729 192.704 171.012 192.631 171.239 192.755C171.465 192.879 171.557 193.157 171.449 193.392L169.566 196.829C169.482 196.986 169.318 197.084 169.14 197.085L169.137 197.078ZM118.161 198.228C118.213 198.245 118.267 198.254 118.322 198.255C118.561 198.254 118.765 198.081 118.805 197.845C118.844 197.609 118.708 197.379 118.482 197.3L114.782 196.021C114.526 195.932 114.248 196.068 114.159 196.323C114.071 196.578 114.206 196.857 114.461 196.945L118.161 198.228ZM125.719 200.816C125.664 200.816 125.61 200.806 125.559 200.789L121.858 199.506C121.603 199.418 121.468 199.139 121.556 198.884C121.645 198.629 121.924 198.494 122.179 198.582L125.879 199.864C126.1 199.946 126.232 200.174 126.193 200.407C126.154 200.639 125.955 200.811 125.719 200.816ZM165.327 203.916C165.146 203.916 164.98 203.816 164.895 203.656C164.811 203.495 164.822 203.301 164.925 203.152C165.182 202.778 165.419 202.389 165.634 201.989L166.831 199.793C166.915 199.639 167.074 199.542 167.248 199.538C167.423 199.533 167.587 199.622 167.678 199.771C167.769 199.92 167.774 200.107 167.691 200.26L166.497 202.456C166.262 202.886 166.006 203.306 165.733 203.705C165.644 203.839 165.495 203.92 165.334 203.923L165.327 203.916ZM140.356 205.915C140.408 205.932 140.462 205.941 140.516 205.942C140.752 205.937 140.951 205.765 140.99 205.532C141.03 205.3 140.898 205.072 140.677 204.99L136.977 203.708C136.721 203.62 136.443 203.755 136.354 204.01C136.266 204.265 136.401 204.544 136.656 204.632L140.356 205.915ZM158.859 208.393C158.905 208.62 159.104 208.784 159.335 208.786C159.399 208.785 159.463 208.772 159.523 208.749C160.772 208.227 161.94 207.529 162.991 206.675C163.178 206.499 163.198 206.208 163.036 206.008C162.873 205.809 162.585 205.768 162.374 205.915C161.396 206.71 160.308 207.36 159.144 207.845C158.932 207.937 158.813 208.166 158.859 208.393ZM151.58 209.625C152.404 209.775 153.239 209.85 154.076 209.85C154.589 209.85 155.101 209.822 155.611 209.765C155.785 209.745 155.935 209.635 156.005 209.475C156.075 209.315 156.054 209.129 155.95 208.989C155.846 208.848 155.675 208.773 155.502 208.793C154.252 208.928 152.988 208.885 151.75 208.663C151.485 208.616 151.231 208.793 151.184 209.059C151.137 209.325 151.314 209.578 151.58 209.625ZM147.914 208.503C147.859 208.504 147.805 208.496 147.753 208.479L144.053 207.197C143.798 207.108 143.663 206.83 143.751 206.574C143.84 206.319 144.118 206.184 144.374 206.273L148.081 207.558C148.302 207.64 148.434 207.868 148.394 208.1C148.355 208.333 148.156 208.505 147.92 208.51L147.914 208.503ZM132.956 203.353C133.007 203.37 133.061 203.38 133.116 203.381C133.355 203.38 133.559 203.207 133.599 202.971C133.639 202.735 133.502 202.504 133.276 202.426L129.579 201.147C129.414 201.09 129.231 201.125 129.099 201.239C128.967 201.353 128.906 201.53 128.939 201.701C128.972 201.873 129.094 202.014 129.259 202.071L132.956 203.353ZM110.764 195.663C110.816 195.682 110.87 195.691 110.925 195.69C111.166 195.695 111.375 195.522 111.415 195.284C111.455 195.045 111.315 194.813 111.085 194.739L107.385 193.456C107.219 193.4 107.037 193.435 106.905 193.55C106.773 193.665 106.713 193.841 106.746 194.012C106.78 194.183 106.902 194.324 107.067 194.381L110.764 195.663ZM88.5795 187.983C88.6313 188 88.6853 188.009 88.7398 188.01C88.9793 188.009 89.1834 187.836 89.223 187.6C89.2627 187.364 89.1262 187.134 88.9001 187.055L88.0066 186.745C87.7541 186.668 87.4863 186.805 87.4001 187.054C87.3139 187.304 87.4402 187.577 87.686 187.672L88.5795 187.983Z" fill="#A877C5"/>
<path d="M178.812 188.122C171.781 184.394 169.103 175.673 172.83 168.642C176.557 161.611 185.279 158.933 192.31 162.661L227.964 181.563C234.995 185.29 237.673 194.011 233.946 201.042C230.219 208.073 221.497 210.751 214.466 207.024L178.812 188.122Z" fill="#813AAB"/>
<path d="M173.315 163.395L177.788 154.958L211.837 173.009L207.364 181.446C202.379 190.848 190.717 194.429 181.314 189.445C171.912 184.46 168.331 172.797 173.315 163.395L173.315 163.395Z" fill="#813AAB"/>
<path d="M223.89 180.018C227.617 180.711 230.916 182.857 233.06 185.984C235.204 189.111 236.017 192.962 235.32 196.688L221.465 270.795L193.366 265.541L207.221 191.435C208.671 183.679 216.134 178.568 223.89 180.018Z" fill="#813AAB"/>
<path d="M196.405 264.521L219.202 268.708L217.538 277.772L194.74 273.585L196.405 264.521Z" fill="#EF948C"/>
<rect x="91.7275" y="285.694" width="182.139" height="11.1588" rx="5.57942" fill="#FFB829"/>
<path d="M273.863 291.273C273.864 292.753 273.276 294.173 272.23 295.22C271.183 296.266 269.763 296.854 268.283 296.853H97.303C94.2224 296.851 91.7255 294.354 91.7236 291.273C91.7235 290.867 91.7692 290.462 91.86 290.066C92.4297 292.621 94.699 294.437 97.3167 294.431H268.283C270.901 294.437 273.17 292.621 273.74 290.066C273.825 290.463 273.866 290.868 273.863 291.273Z" fill="#FF9F29"/>
<path d="M188.767 161.061C188.701 161.061 188.636 161.047 188.576 161.02C188.456 160.969 188.361 160.872 188.313 160.751C188.264 160.631 188.266 160.495 188.317 160.375L189.088 158.578C189.206 158.351 189.48 158.253 189.716 158.354C189.952 158.455 190.071 158.721 189.988 158.964L189.217 160.761C189.141 160.943 188.964 161.061 188.767 161.061Z" fill="#A877C5"/>
<path fill-rule="evenodd" clip-rule="evenodd" d="M186.161 168.202H186.226C186.466 168.204 186.672 168.03 186.71 167.793C186.862 166.657 187.168 165.548 187.621 164.495L187.716 164.274C187.802 164.11 187.788 163.913 187.681 163.762C187.575 163.612 187.393 163.534 187.21 163.561C187.028 163.587 186.875 163.714 186.816 163.888L186.721 164.11C186.234 165.241 185.905 166.433 185.742 167.653C185.724 167.782 185.759 167.912 185.837 168.015C185.916 168.118 186.033 168.185 186.161 168.202ZM187.399 175.613C187.211 175.614 187.038 175.506 186.956 175.337C186.383 174.15 185.985 172.886 185.772 171.585C185.746 171.326 185.927 171.092 186.184 171.051C186.441 171.01 186.686 171.177 186.741 171.432C186.935 172.64 187.305 173.813 187.839 174.914C187.954 175.157 187.852 175.447 187.611 175.565C187.553 175.597 187.489 175.615 187.423 175.62L187.399 175.613ZM192.221 181.073C192.297 181.119 192.383 181.142 192.47 181.141L192.505 181.148C192.725 181.15 192.919 181.004 192.978 180.791C193.037 180.579 192.946 180.353 192.757 180.241C191.684 179.623 190.71 178.848 189.865 177.942C189.684 177.748 189.381 177.735 189.183 177.912C188.992 178.094 188.979 178.395 189.152 178.594C190.049 179.565 191.083 180.401 192.221 181.073ZM199.271 184.552C199.195 184.551 199.121 184.534 199.052 184.501L195.642 182.795C195.471 182.726 195.353 182.567 195.337 182.383C195.32 182.199 195.409 182.022 195.565 181.924C195.722 181.826 195.92 181.824 196.079 181.919L199.489 183.624C199.696 183.723 199.806 183.953 199.753 184.176C199.701 184.399 199.5 184.556 199.271 184.552ZM205.873 187.911C205.941 187.944 206.016 187.962 206.091 187.962L206.112 187.983C206.295 187.971 206.457 187.858 206.531 187.689C206.589 187.573 206.598 187.439 206.557 187.316C206.515 187.193 206.426 187.092 206.31 187.035L202.899 185.329C202.741 185.234 202.543 185.236 202.386 185.334C202.23 185.432 202.141 185.609 202.157 185.793C202.174 185.977 202.292 186.137 202.463 186.206L205.873 187.911ZM212.912 191.356C212.836 191.355 212.761 191.337 212.694 191.301L209.284 189.596C209.113 189.527 208.995 189.367 208.978 189.183C208.962 188.999 209.051 188.822 209.207 188.724C209.364 188.626 209.562 188.624 209.72 188.719L213.131 190.425C213.247 190.482 213.336 190.583 213.378 190.706C213.419 190.829 213.41 190.963 213.352 191.079C213.275 191.245 213.112 191.353 212.93 191.362L212.912 191.356ZM218.393 195.83C218.484 195.962 218.635 196.04 218.795 196.038L218.812 196.045C218.907 196.04 218.999 196.007 219.075 195.949C219.296 195.793 219.349 195.489 219.194 195.267C218.436 194.189 217.523 193.227 216.486 192.413C216.275 192.246 215.968 192.283 215.801 192.495C215.634 192.706 215.671 193.013 215.883 193.18C216.844 193.937 217.689 194.829 218.393 195.83ZM221.182 203.162C220.917 203.161 220.701 202.95 220.691 202.685C220.652 201.463 220.432 200.255 220.04 199.097C219.955 198.841 220.094 198.565 220.35 198.48C220.606 198.395 220.883 198.534 220.968 198.79C221.385 200.041 221.615 201.346 221.65 202.664C221.657 202.934 221.446 203.16 221.176 203.169L221.182 203.162ZM219.928 210.665H220.023L220.04 210.676C220.272 210.666 220.465 210.495 220.504 210.266L221.247 206.532C221.282 206.361 221.222 206.184 221.091 206.069C220.959 205.954 220.777 205.918 220.611 205.974C220.446 206.03 220.323 206.17 220.289 206.341L219.542 210.092C219.517 210.219 219.544 210.351 219.616 210.459C219.688 210.566 219.8 210.641 219.928 210.665ZM218.533 218.134C218.501 218.137 218.469 218.137 218.437 218.134C218.172 218.081 218 217.823 218.052 217.558L218.799 213.806C218.852 213.542 219.111 213.371 219.375 213.424C219.64 213.478 219.811 213.736 219.757 214.001L219.017 217.752C218.97 217.982 218.767 218.146 218.533 218.144V218.134ZM216.947 225.603C216.979 225.606 217.011 225.606 217.042 225.603V225.613C217.281 225.61 217.484 225.436 217.523 225.2L218.267 221.466C218.32 221.201 218.148 220.944 217.883 220.891C217.619 220.839 217.361 221.01 217.308 221.275L216.562 225.026C216.509 225.292 216.682 225.55 216.947 225.603ZM215.552 233.068H215.457C215.192 233.013 215.021 232.757 215.071 232.492L215.818 228.757C215.852 228.586 215.975 228.446 216.14 228.39C216.306 228.334 216.488 228.371 216.619 228.486C216.751 228.601 216.81 228.777 216.776 228.948L216.033 232.7C215.98 232.923 215.781 233.08 215.552 233.078V233.068ZM213.966 240.537C213.998 240.54 214.03 240.54 214.062 240.537V240.547C214.29 240.549 214.489 240.394 214.543 240.172L215.286 236.421C215.339 236.156 215.167 235.899 214.902 235.846C214.638 235.793 214.38 235.965 214.328 236.23L213.581 239.961C213.529 240.226 213.701 240.484 213.966 240.537ZM212.571 248.006C212.54 248.009 212.508 248.009 212.476 248.006C212.211 247.953 212.038 247.695 212.09 247.429L212.837 243.695C212.891 243.43 213.149 243.259 213.414 243.313C213.678 243.367 213.849 243.625 213.796 243.889L213.049 247.62C213.001 247.845 212.802 248.006 212.571 248.006ZM210.986 255.481H211.081C211.317 255.481 211.519 255.311 211.559 255.079L212.305 251.345C212.358 251.079 212.185 250.821 211.92 250.768C211.793 250.742 211.661 250.768 211.553 250.841C211.445 250.913 211.371 251.026 211.347 251.154L210.6 254.905C210.548 255.17 210.72 255.428 210.986 255.481ZM209.495 262.95C209.527 262.954 209.559 262.954 209.591 262.95C209.83 262.959 210.04 262.793 210.085 262.558L210.832 258.824C210.868 258.566 210.696 258.325 210.441 258.275C210.186 258.224 209.936 258.381 209.87 258.633L209.127 262.364C209.097 262.49 209.12 262.623 209.189 262.734C209.258 262.844 209.368 262.922 209.495 262.95Z" fill="#A877C5"/>
<path d="M208.445 268.618C208.413 268.622 208.381 268.622 208.349 268.618C208.222 268.593 208.11 268.519 208.038 268.412C207.965 268.304 207.939 268.172 207.964 268.045L208.346 266.125C208.371 265.945 208.494 265.793 208.665 265.731C208.837 265.669 209.028 265.707 209.163 265.83C209.298 265.952 209.353 266.14 209.307 266.316L208.926 268.236C208.874 268.46 208.675 268.619 208.445 268.618Z" fill="#A877C5"/>
<path d="M226.312 281.871H204.946C204.949 280.988 205.064 280.109 205.287 279.255C206.052 276.23 208.102 273.689 210.897 272.301C214.209 270.659 218.134 270.845 221.275 272.793C224.417 274.741 226.328 278.175 226.329 281.871H226.312Z" fill="#FFE7E9"/>
<path d="M217.755 275.552H218.277C223.112 275.552 227.031 279.471 227.031 284.306C227.031 284.415 226.988 284.519 226.911 284.595C226.835 284.672 226.731 284.715 226.622 284.715H209.41C209.301 284.715 209.197 284.672 209.12 284.595C209.044 284.519 209 284.415 209 284.306C209 279.471 212.92 275.552 217.755 275.552V275.552Z" fill="#652682"/>
<path d="M226.312 277.697L217.312 278.358L205.27 279.252C206.036 276.227 208.085 273.687 210.88 272.298L195.328 269.389L192.44 282.233C192.251 283.073 192.455 283.953 192.993 284.625C193.531 285.298 194.345 285.69 195.206 285.691H226.448C227.596 285.643 228.488 284.676 228.443 283.528V279.855C228.469 279.28 228.254 278.72 227.849 278.31C227.445 277.9 226.888 277.678 226.312 277.697Z" fill="#813AAB"/>
<path d="M201.385 280.063C201.028 281.213 199.918 281.959 198.718 281.855C197.519 281.751 196.553 280.826 196.399 279.632C196.245 278.437 196.943 277.297 198.077 276.892C198.054 276.961 198.035 277.032 198.019 277.103C197.873 277.767 197.996 278.461 198.362 279.033C198.728 279.606 199.306 280.009 199.97 280.155C200.441 280.261 200.932 280.229 201.385 280.063Z" fill="#652682"/>
<path d="M200.812 281.864C199.85 283.077 198.16 283.432 196.791 282.707C195.423 281.982 194.766 280.385 195.229 278.907C195.451 278.189 195.92 277.573 196.553 277.168C195.574 278.4 195.632 280.159 196.689 281.324C197.746 282.49 199.491 282.718 200.812 281.864Z" fill="#652682"/>
<ellipse cx="200.055" cy="278.375" rx="1.33006" ry="1.33005" fill="#652682"/>
<path d="M66.6641 199.066L71.4182 178.239C72.2777 178.432 73.1096 178.732 73.8941 179.133C78.6926 181.584 80.9147 187.225 79.0774 192.291C77.2401 197.356 71.9184 200.261 66.6641 199.066H66.6641Z" fill="#FFE7E9"/>
<path d="M74.7258 192.137L74.6097 192.646C73.5336 197.36 68.84 200.309 64.1263 199.233C63.906 199.182 63.7681 198.963 63.8184 198.742L67.6493 181.962C67.6996 181.742 67.9191 181.604 68.1394 181.654C70.403 182.171 72.3686 183.566 73.6038 185.532C74.839 187.498 75.2426 189.874 74.7258 192.137H74.7258Z" fill="#4F1F68"/>
<path d="M70.7294 199.994L72.0936 191.076L73.9045 179.139C76.6858 180.558 78.707 183.122 79.4362 186.158L85.7352 171.643L73.8568 165.969C73.0797 165.597 72.1756 165.598 71.4 165.973C70.6244 166.348 70.0613 167.055 69.87 167.895L62.906 198.35C62.6963 199.48 63.4408 200.566 64.5702 200.778L68.1512 201.594C68.7064 201.747 69.3004 201.661 69.7899 201.357C70.2794 201.054 70.6199 200.56 70.7294 199.994Z" fill="#652682"/>
<path d="M73.966 175.17C72.9278 174.565 72.4493 173.32 72.8155 172.176C73.1817 171.032 74.294 170.296 75.4904 170.406C76.6868 170.517 77.6455 171.444 77.7959 172.636L77.6015 172.53C76.9871 172.239 76.282 172.205 75.6421 172.434C75.0022 172.664 74.4801 173.139 74.1911 173.754C73.9813 174.195 73.9031 174.686 73.966 175.17Z" fill="#4F1F68"/>
<path d="M72.3425 174.212C71.5507 173.217 71.4197 171.849 72.0082 170.723C72.5967 169.596 73.7942 168.923 75.0626 169.004C76.331 169.086 77.4319 169.908 77.8707 171.101C77.2093 170.271 76.18 169.821 75.1214 169.901C74.0628 169.98 73.1118 170.577 72.5812 171.497C72.1009 172.321 72.0134 173.316 72.3425 174.212Z" fill="#4F1F68"/>
<ellipse cx="75.9131" cy="174.249" rx="1.33006" ry="1.33005" fill="#4F1F68"/>
<path d="M241.349 80.7931L247.588 82.5443L244.546 93.3798C243.614 96.7002 240.167 98.6363 236.846 97.7042L230.608 95.953L233.649 85.1175C234.581 81.7971 238.029 79.861 241.349 80.7931Z" fill="#54233A"/>
<path d="M254.425 150.043C257.162 153.302 256.741 158.162 253.482 160.9C250.224 163.638 245.363 163.216 242.625 159.958L218.34 131.057C215.602 127.799 216.024 122.938 219.282 120.2C222.541 117.462 227.401 117.884 230.139 121.142L254.425 150.043Z" fill="#EF948C"/>
<path d="M254.656 159.676C254.315 160.127 253.924 160.538 253.489 160.901C250.231 163.639 245.37 163.218 242.631 159.959L218.335 131.073C216.44 128.826 215.99 125.696 217.174 123.005C218.358 120.314 220.97 118.532 223.908 118.41C221.717 121.277 221.811 125.28 224.133 128.041L248.418 156.948C249.882 158.692 252.044 159.698 254.322 159.693L254.656 159.676Z" fill="#EA8681"/>
<path d="M254.352 159.993C251.604 163.242 246.742 163.649 243.492 160.901C240.242 158.153 239.836 153.29 242.584 150.041L266.96 121.216C269.708 117.967 274.57 117.56 277.82 120.308C281.069 123.056 281.476 127.918 278.728 131.168L254.352 159.993Z" fill="#EF948C"/>
<ellipse cx="224.351" cy="127.359" rx="13.2085" ry="13.2085" fill="#FFD9D9"/>
<path d="M230.953 136.966L211.855 173.004L177.785 154.953L185.561 140.288L196.89 118.912C200.115 112.827 206.342 108.925 213.224 108.676C220.106 108.426 226.598 111.868 230.255 117.703C233.912 123.538 234.178 130.882 230.953 136.966Z" fill="white"/>
<path d="M231.479 107.715L228.085 114.113L226.912 116.327C225.925 118.278 223.962 119.543 221.777 119.637C219.593 119.73 217.529 118.636 216.379 116.776C215.23 114.917 215.174 112.581 216.234 110.669L216.538 110.096L220.797 102.041C221.527 100.665 222.773 99.6359 224.261 99.1792C225.749 98.7226 227.358 98.8759 228.733 99.6055L229.04 99.7658C230.42 100.495 231.453 101.743 231.91 103.234C232.368 104.726 232.212 106.338 231.479 107.715Z" fill="#EF948C"/>
<path d="M231.479 107.715L228.085 114.113C224.035 113.442 220.13 112.083 216.538 110.096L220.797 102.041C221.527 100.665 222.772 99.6359 224.261 99.1792C225.749 98.7226 227.358 98.8759 228.733 99.6055L229.04 99.7658C230.42 100.495 231.452 101.743 231.91 103.234C232.367 104.726 232.212 106.338 231.479 107.715Z" fill="#EA8681"/>
<path d="M244.957 85.1898C244.946 85.4432 244.922 85.6959 244.885 85.9469C244.851 86.1924 244.807 86.438 244.756 86.687L244.626 87.3247L244.496 87.9283L244.391 88.4365L241.43 102.518C241.386 102.733 241.335 102.948 241.277 103.159C239.724 108.87 233.986 112.379 228.195 111.16L223.58 110.191C217.111 108.819 212.522 103.053 212.636 96.4407C212.636 96.3384 212.636 96.2395 212.636 96.1406C212.669 95.3804 212.764 94.6242 212.919 93.8795L213.117 92.9416L213.138 92.8461L215.276 82.6627L215.402 82.0727L215.556 81.3497L215.692 80.6676L215.784 80.2208L216.159 78.4474L216.398 77.3049L216.497 76.8411L216.647 76.1249C217.251 73.3077 219.878 71.3962 222.745 71.688C222.95 71.7044 223.154 71.734 223.355 71.7767L236.881 74.621C237.483 74.743 238.072 74.9223 238.641 75.1564C241.306 76.2455 243.386 78.4129 244.363 81.1212C244.462 81.3872 244.547 81.66 244.622 81.9363C244.826 82.6876 244.94 83.4602 244.964 84.2383C244.981 84.5452 244.977 84.8658 244.957 85.1898Z" fill="#EF948C"/>
<ellipse cx="200.4" cy="122.445" rx="13.2085" ry="13.2085" fill="#FFD9D9"/>
<ellipse cx="199.748" cy="123.028" rx="8.47826" ry="8.47825" fill="#F7BCBC"/>
<path d="M139.577 152.992C135.586 154.47 131.153 152.432 129.675 148.44C128.198 144.449 130.236 140.016 134.227 138.539L196.074 115.649C200.066 114.172 204.499 116.21 205.976 120.201C207.453 124.192 205.415 128.625 201.424 130.102L139.577 152.992Z" fill="#EF948C"/>
<path d="M120.814 152.032C119.198 151.777 118.095 150.261 118.349 148.645C118.604 147.029 120.121 145.926 121.737 146.18L130.842 147.616C132.458 147.871 133.562 149.387 133.307 151.003C133.052 152.619 131.536 153.722 129.92 153.468L120.814 152.032Z" fill="#EA8681"/>
<path d="M123.864 150.377C119.72 148.572 117.823 143.75 119.628 139.605C121.432 135.461 126.255 133.564 130.4 135.368L136.966 138.228C141.11 140.032 143.007 144.855 141.203 149C139.398 153.144 134.575 155.041 130.431 153.236L123.864 150.377Z" fill="#EF948C"/>
<path d="M205.983 120.204C204.508 116.217 200.082 114.178 196.093 115.648L136.087 137.85L130.408 135.374C127.489 134.102 124.097 134.638 121.713 136.749C119.329 138.859 118.385 142.161 119.294 145.213C119.239 143.97 119.472 142.732 119.976 141.594C121.781 137.451 126.602 135.555 130.746 137.359L133.836 138.702L136.431 139.831L138.477 139.078L196.427 117.63C200.415 116.163 204.838 118.199 206.317 122.182C206.368 122.326 206.416 122.472 206.46 122.619C206.433 121.794 206.271 120.978 205.983 120.204Z" fill="#F3A6A0"/>
<path d="M113.78 145.983C112.28 145.33 111.593 143.584 112.246 142.085C112.9 140.585 114.645 139.898 116.145 140.551L131.344 147.17C132.844 147.823 133.53 149.568 132.877 151.068C132.224 152.568 130.479 153.254 128.979 152.601L113.78 145.983Z" fill="#EF948C"/>
<ellipse cx="131.266" cy="146.814" rx="3.98335" ry="5.12924" transform="rotate(-73.59 131.266 146.814)" fill="#F3A6A0"/>
<path d="M278.601 115.945C282.596 115.166 286.466 117.773 287.245 121.768C288.024 125.763 285.416 129.633 281.421 130.412L275.095 131.645C271.1 132.424 267.23 129.817 266.451 125.821C265.672 121.826 268.28 117.956 272.275 117.178L278.601 115.945Z" fill="#EF948C"/>
<path d="M288.321 114.051C289.766 113.769 291.165 114.712 291.447 116.157C291.729 117.601 290.786 119.001 289.341 119.283L274.689 122.138C273.244 122.42 271.845 121.477 271.563 120.032C271.282 118.588 272.225 117.188 273.669 116.907L288.321 114.051Z" fill="#EF948C"/>
<path d="M276.115 111.856C277.175 110.834 278.862 110.864 279.884 111.923C280.906 112.982 280.876 114.67 279.817 115.692L273.844 121.456C272.784 122.478 271.097 122.448 270.075 121.389C269.053 120.33 269.083 118.642 270.142 117.62L276.115 111.856Z" fill="#EA8681"/>
<ellipse cx="273.181" cy="121.599" rx="5.252" ry="5.25201" fill="#EA8681"/>
<path d="M219.977 76.3628L223.976 77.4854L221.464 86.4329C220.764 88.9282 218.173 90.3832 215.678 89.6827L211.679 88.5601L214.189 79.6158C214.525 78.4168 215.323 77.4002 216.409 76.7901C217.494 76.18 218.778 76.0262 219.977 76.3628V76.3628Z" fill="#54233A"/>
<path d="M217.497 80.2378L220.596 81.1079L218.914 87.1003C218.674 87.9572 218.102 88.6835 217.326 89.1193C216.55 89.5551 215.633 89.6648 214.776 89.4243L211.677 88.5542L213.359 82.5618C213.86 80.7774 215.712 79.7369 217.497 80.2378V80.2378Z" fill="#662F49"/>
<ellipse cx="214.045" cy="88.5763" rx="5.17015" ry="5.17016" fill="#EF948C"/>
<path d="M211.61 87.7851C211.471 88.4431 211.648 89.1279 212.087 89.637C211.865 89.2015 211.8 88.7029 211.903 88.225C212.021 87.6656 212.356 87.1759 212.835 86.8637C213.314 86.5516 213.898 86.4426 214.457 86.5608C214.921 86.6558 215.34 86.903 215.648 87.2633C215.235 86.4463 214.352 85.9784 213.444 86.0957C212.536 86.213 211.801 86.89 211.61 87.7851Z" fill="#EA8681"/>
<path d="M246.239 83.5118L213.877 77.6766C215.489 68.7403 224.039 62.8023 232.976 64.4136C241.912 66.0249 247.85 74.5755 246.239 83.5118Z" fill="#813AAB"/>
<path d="M246.368 78.4508C244.172 71.8117 238.017 67.2874 231.025 67.1714C224.033 67.0555 217.732 71.3732 215.317 77.9358L213.877 77.68C215.321 69.7088 222.354 63.9755 230.453 64.1677C238.551 64.3598 245.304 70.42 246.368 78.4508Z" fill="#8942B7"/>
<path d="M211.62 76.8449C211.812 75.7828 212.828 75.077 213.89 75.2685L252.135 82.1636C253.197 82.3551 253.903 83.3714 253.711 84.4335C253.52 85.4956 252.504 86.2014 251.441 86.0099L213.197 79.1148C212.134 78.9233 211.429 77.907 211.62 76.8449Z" fill="#652682"/>
<path d="M214.065 77.2811C213.875 78.3441 214.581 79.3605 215.644 79.5524L213.199 79.1125C212.21 78.9258 211.524 78.0199 211.612 77.0175C211.7 76.0151 212.534 75.2428 213.54 75.2314C213.655 75.2318 213.769 75.2432 213.881 75.2655L216.319 75.7055C216.207 75.6829 216.093 75.6715 215.978 75.6714C215.036 75.6777 214.233 76.3541 214.065 77.2811Z" fill="#813AAB"/>
<path d="M227.543 73.9252C226.665 75.0069 225.153 75.3312 223.908 74.7045C222.664 74.0777 222.025 72.6691 222.371 71.3199C222.718 69.9706 223.958 69.0451 225.35 69.0961C225.294 69.1605 225.243 69.2289 225.197 69.3007C224.59 70.1925 224.516 71.344 225.004 72.3061C225.492 73.2682 226.465 73.8885 227.543 73.9252Z" fill="#FFB829"/>
<path d="M226.152 75.6065C224.873 76.3358 223.284 76.242 222.101 75.3672C220.917 74.4924 220.361 73.0014 220.682 71.565C221.004 70.1286 222.143 69.0174 223.587 68.7311C222.004 69.6341 221.309 71.5517 221.946 73.2593C222.583 74.9669 224.364 75.9609 226.152 75.6065Z" fill="#FFB829"/>
<circle cx="226.833" cy="71.5311" r="1.5415" fill="#FFB829"/>
<path d="M228.972 137.696C228.094 138.778 226.582 139.102 225.338 138.476C224.093 137.849 223.454 136.44 223.801 135.091C224.148 133.742 225.387 132.816 226.779 132.867C226.723 132.932 226.671 133 226.622 133.072C226.013 133.964 225.938 135.117 226.427 136.08C226.917 137.043 227.892 137.663 228.972 137.696Z" fill="#813AAB"/>
<path d="M227.588 139.381C226.034 140.261 224.074 139.913 222.918 138.551C221.762 137.19 221.737 135.199 222.857 133.808C223.402 133.132 224.17 132.67 225.023 132.506C224.621 132.732 224.266 133.033 223.976 133.392C222.993 134.61 222.877 136.312 223.685 137.651C224.493 138.991 226.052 139.682 227.588 139.381Z" fill="#813AAB"/>
<ellipse cx="228.27" cy="135.306" rx="1.5415" ry="1.54151" fill="#813AAB"/>
<ellipse cx="238.03" cy="90.4623" rx="1.22433" ry="1.22434" fill="#54233A"/>
<circle cx="228.403" cy="88.2796" r="1.22433" fill="#54233A"/>
<path d="M170.473 134.467C171.404 134.122 172.438 134.598 172.783 135.528C173.127 136.459 172.652 137.493 171.721 137.838L158.62 142.686C157.689 143.031 156.655 142.556 156.311 141.625C155.966 140.694 156.442 139.66 157.373 139.315L170.473 134.467Z" fill="#F3A6A0"/>
<path d="M235.905 94.8582C235.691 95.8214 235.103 96.6602 234.272 97.1909C234.169 97.2557 234.064 97.3137 233.958 97.3683C233.189 97.7613 232.307 97.8735 231.465 97.6855L231.318 97.6513C229.426 97.234 228.172 95.4337 228.436 93.5145C228.436 93.4122 228.471 93.3099 228.491 93.2076C228.579 92.8207 228.963 92.5771 229.35 92.6619L235.356 93.9954C235.543 94.037 235.706 94.1512 235.809 94.3131C235.912 94.4749 235.947 94.671 235.905 94.8582Z" fill="#962F4A"/>
<path d="M231.516 97.1091C231.474 97.2976 231.414 97.4815 231.336 97.6582C229.434 97.2482 228.17 95.4415 228.437 93.5145C228.716 93.4944 228.996 93.5151 229.269 93.5759C230.036 93.7454 230.704 94.2132 231.126 94.8761C231.548 95.539 231.688 96.3424 231.516 97.1091Z" fill="#E1617F"/>
<path d="M235.223 93.9681C235.036 94.6741 233.811 94.9913 232.461 94.7014C231.11 94.4115 230.135 93.5862 230.268 92.8666L235.223 93.9681Z" fill="white"/>
</svg>
