<svg width="348" height="348" viewBox="0 0 348 348" fill="none" xmlns="http://www.w3.org/2000/svg">
<path d="M333.555 283.307C339.699 289.457 341.748 298.597 338.818 306.781C338.529 307.586 338.195 308.374 337.815 309.141C334.95 314.923 329.742 319.197 323.512 320.879C322.615 321.123 321.704 321.309 320.784 321.435C319.76 321.576 318.727 321.647 317.694 321.646H36.4994C31.267 321.652 26.1983 319.822 22.1757 316.476C21.6368 316.033 21.1207 315.563 20.6274 315.068C20.3511 314.792 20.0783 314.508 19.8157 314.215C19.4746 313.843 19.1575 313.462 18.8505 313.066C17.8885 311.848 17.0575 310.532 16.3712 309.141C16.2791 308.956 16.1904 308.772 16.1052 308.585C15.8323 307.993 15.5868 307.392 15.3685 306.781C12.7427 299.508 14.0497 291.395 18.8267 285.315C19.1336 284.92 19.4576 284.538 19.7918 284.166C24.0457 279.426 30.1166 276.721 36.4857 276.728H65.7674C66.1357 276.728 66.5006 276.714 66.8622 276.687C67.79 276.621 68.7094 276.466 69.6075 276.223C70.3913 276.014 71.1557 275.738 71.8925 275.398C73.493 274.664 74.9503 273.651 76.1964 272.407C78.9709 269.65 80.5311 265.9 80.531 261.988C80.532 261.43 80.5001 260.872 80.4355 260.317C79.748 254.306 75.462 249.322 69.6212 247.743C68.7229 247.501 67.8036 247.346 66.8758 247.279C66.5143 247.252 66.1494 247.238 65.7811 247.238H61.1838C58.6237 247.241 56.0714 246.955 53.5752 246.386H53.5514L53.3774 246.345C53.1865 246.304 52.9989 246.256 52.8113 246.208L52.5317 246.137C52.2861 246.072 52.0406 246.007 51.7984 245.936C51.5563 245.864 51.3892 245.816 51.188 245.751C49.657 245.286 48.1616 244.71 46.7135 244.029C46.3929 243.879 46.0724 243.726 45.7586 243.562C45.2402 243.299 44.7355 243.027 44.2307 242.737C43.2872 242.198 42.3778 241.613 41.5024 240.984C40.7658 240.462 40.053 239.909 39.3607 239.333C38.5695 238.676 37.8101 237.983 37.0825 237.253C31.1228 231.321 27.5746 223.39 27.1242 214.993C27.1105 214.741 27.1003 214.488 27.0935 214.236C27.0935 213.864 27.073 213.489 27.073 213.117C27.073 212.954 27.073 212.776 27.073 212.63C27.0915 211.261 27.1917 209.894 27.3731 208.537C28.6368 199.158 33.7473 190.729 41.4785 185.271C42.3152 184.676 43.1781 184.12 44.067 183.604C44.1182 183.573 44.1694 183.542 44.2239 183.515C45.7532 182.633 47.3496 181.874 48.9985 181.244C49.7147 180.967 50.4411 180.718 51.1777 180.49C51.9144 180.262 52.7431 180.043 53.5411 179.862C56.0448 179.29 58.6052 179.001 61.1736 179.003H86.2946C89.4127 179.001 92.4534 178.033 94.998 176.23C95.6856 175.74 96.3312 175.194 96.9282 174.597C99.5367 171.993 101.095 168.519 101.307 164.84C101.324 164.55 101.334 164.256 101.334 163.96C101.333 159.394 99.2594 155.076 95.6971 152.221C95.4686 152.037 95.2367 151.88 94.998 151.696C94.1414 151.083 93.2209 150.565 92.2526 150.151C92.0173 150.045 91.7785 149.95 91.5364 149.861C89.8597 149.236 88.0842 148.917 86.2946 148.92H40.4077C36.1682 148.93 31.9609 148.184 27.9836 146.717C26.5815 146.198 25.2144 145.588 23.8911 144.892C23.3045 144.585 22.7282 144.264 22.162 143.927C21.3549 143.447 20.5682 142.936 19.802 142.392C19.461 142.161 19.1541 141.925 18.8369 141.683C17.8877 140.959 16.977 140.186 16.1086 139.367C15.8016 139.084 15.5015 138.794 15.2048 138.498C10.3573 133.663 7.00741 127.533 5.5568 120.842C5.51588 120.662 5.47836 120.482 5.44426 120.3C5.32148 119.7 5.21576 119.096 5.12709 118.482C4.87466 116.754 4.74814 115.01 4.74854 113.264C4.74854 113.128 4.74854 112.991 4.74854 112.855C4.82843 104.729 7.69348 96.8768 12.8653 90.6089C13.1859 90.2201 13.5167 89.8347 13.8543 89.4596C14.284 88.9753 14.7308 88.5047 15.1878 88.0477C15.4845 87.751 15.7846 87.4611 16.0915 87.178L16.1802 87.0962C16.436 86.8575 16.6918 86.6256 16.9544 86.3971C17.5637 85.8628 18.1912 85.3512 18.8369 84.8624C19.1541 84.6202 19.4746 84.3849 19.802 84.153C20.1294 83.9211 20.3955 83.7404 20.6956 83.5391C21.1764 83.2186 21.6641 82.9082 22.162 82.6149L22.4042 82.4717C22.8919 82.1852 23.3898 81.909 23.8911 81.6498C25.2138 80.9536 26.5809 80.3452 27.9836 79.8286C31.9585 78.3494 36.1665 77.5952 40.4077 77.6016C40.7677 77.6013 41.1274 77.5819 41.4854 77.5437C42.4242 77.4419 43.3433 77.2041 44.2137 76.8377C46.5866 75.8562 48.4881 73.995 49.5203 71.6437C49.9243 70.7214 50.1842 69.7426 50.291 68.7414C50.3265 68.4278 50.3447 68.1124 50.3456 67.7967C50.3456 67.7524 50.3456 67.7081 50.3456 67.6637V60.5667C50.3439 58.9236 50.5805 57.2889 51.0481 55.7137C51.0925 55.567 51.1368 55.4204 51.1845 55.2772C53.2944 48.8001 59.0642 44.2057 65.8493 43.5999C66.1903 43.5693 66.5313 43.5488 66.8724 43.5386H67.3805H167.305C167.684 43.5386 168.056 43.5386 168.427 43.5761C169.352 43.6331 170.27 43.7677 171.173 43.9785C174.146 44.6716 176.878 46.1524 179.081 48.2654C179.173 48.3506 179.262 48.4393 179.351 48.528C182.41 51.5804 184.189 55.6847 184.327 60.004V60.5735C184.327 60.5735 184.327 60.9145 184.327 61.0578C184.349 61.8582 184.429 62.656 184.565 63.4451C184.593 63.6122 184.627 63.7861 184.657 63.9464C184.722 64.2636 184.797 64.5807 184.876 64.8911C185.138 65.8886 185.49 66.8601 185.929 67.7933C186.08 68.1139 186.24 68.4311 186.407 68.738C186.485 68.8847 186.567 69.0279 186.652 69.1711C187.163 70.0455 187.752 70.8719 188.412 71.6403C188.898 72.2094 189.423 72.7449 189.981 73.2431C190.23 73.4682 190.486 73.6831 190.745 73.8945C191.696 74.648 192.725 75.2974 193.814 75.8316C194.029 75.9408 194.247 76.0431 194.469 76.142C196.642 77.1061 198.994 77.6022 201.372 77.5982H251.215C252.194 77.5982 253.159 77.6494 254.114 77.7449C257.561 78.0957 260.914 79.0796 264.004 80.6471C266.158 81.7425 268.165 83.1074 269.975 84.7089C270.139 84.8556 270.299 84.9988 270.46 85.1489C270.62 85.2989 270.729 85.3978 270.859 85.5274C271.155 85.8105 271.442 86.0969 271.715 86.3936C271.824 86.4994 271.923 86.6085 272.022 86.7347C272.035 86.7433 272.047 86.7549 272.056 86.7688C272.161 86.8813 272.264 86.9939 272.359 87.1098C272.455 87.2258 272.605 87.3827 272.721 87.5225C272.891 87.7169 273.062 87.9147 273.219 88.1159C273.341 88.2625 273.461 88.4126 273.56 88.5661C273.659 88.7195 273.788 88.8594 273.901 89.0094C274.013 89.1595 274.133 89.3164 274.242 89.4732C274.292 89.5369 274.34 89.6017 274.385 89.6676C274.607 89.9814 274.822 90.2986 275.03 90.6225C275.166 90.8374 275.302 91.0523 275.435 91.2705C275.667 91.6525 275.889 92.0413 276.117 92.4335C276.424 93.0019 276.713 93.5816 276.984 94.1728C277.227 94.698 277.454 95.2323 277.666 95.7757C278.033 96.7236 278.346 97.6914 278.604 98.6745C278.747 99.2031 278.873 99.7385 278.982 100.277C279.179 101.236 279.323 102.205 279.415 103.18C279.507 104.103 279.553 105.031 279.552 105.959V129.256C279.55 134.185 281.508 138.913 284.994 142.398C288.48 145.883 293.209 147.839 298.138 147.835H326.489C329.286 147.837 332.039 148.54 334.493 149.882C335.687 150.533 336.797 151.325 337.801 152.242C337.989 152.412 338.173 152.583 338.35 152.767C338.767 153.184 339.162 153.622 339.534 154.08C344.508 160.234 344.508 169.026 339.534 175.18C339.162 175.638 338.767 176.076 338.35 176.493C335.742 179.111 332.339 180.79 328.675 181.268C327.95 181.364 327.22 181.411 326.489 181.411C325.486 181.411 324.488 181.554 323.525 181.834C322.56 182.118 321.641 182.542 320.797 183.092C320.535 183.259 320.282 183.433 320.037 183.628C317.471 185.623 315.972 188.692 315.975 191.942V225.613C315.983 230.619 314.247 235.472 311.064 239.336C310.616 239.886 310.14 240.412 309.638 240.912C308.651 241.9 307.569 242.789 306.409 243.565C306.173 243.729 305.935 243.883 305.693 244.033C305.351 244.244 305.01 244.445 304.646 244.636L304.148 244.899C304.106 244.923 304.062 244.945 304.018 244.964C303.851 245.049 303.677 245.131 303.513 245.209C303.495 245.222 303.474 245.232 303.452 245.236C303.264 245.325 303.077 245.41 302.889 245.489C302.702 245.567 302.487 245.659 302.285 245.738C301.657 245.99 301.016 246.21 300.365 246.396C299.638 246.608 298.901 246.781 298.155 246.914C297.248 247.074 296.331 247.177 295.41 247.221C295.069 247.238 294.697 247.249 294.339 247.249C286.837 247.245 280.526 252.873 279.675 260.327C279.61 260.882 279.578 261.44 279.579 261.999C279.578 265.911 281.132 269.664 283.899 272.431C286.667 275.197 290.42 276.75 294.332 276.749H317.701C318.734 276.747 319.767 276.819 320.79 276.963C321.711 277.088 322.622 277.273 323.519 277.516C323.822 277.598 324.122 277.686 324.422 277.778C327.867 278.859 331 280.756 333.555 283.307Z" fill="#F3F4FE"/>
<path d="M18.827 84.8624V141.666C17.8777 140.942 16.9671 140.169 16.0986 139.35V87.1712L16.1873 87.0894C16.4431 86.8506 16.6989 86.6187 16.9615 86.3902C17.5708 85.8605 18.1926 85.3512 18.827 84.8624Z" fill="#EFF1FD"/>
<path d="M16.0986 289.797C16.8288 288.201 17.7445 286.697 18.8269 285.315V313.066C17.8649 311.848 17.0338 310.532 16.3476 309.14C16.2555 308.956 16.1668 308.772 16.0815 308.585L16.0986 289.797Z" fill="#EFF1FD"/>
<path d="M44.2308 76.8377V148.923H41.5024V77.5437C42.4413 77.4419 43.3604 77.2041 44.2308 76.8377V76.8377Z" fill="#EFF1FD"/>
<path d="M44.0636 183.607C44.1148 183.576 44.1659 183.546 44.2205 183.518V242.72C43.277 242.181 42.3675 241.596 41.4922 240.967V185.275C42.3243 184.677 43.1815 184.121 44.0636 183.607Z" fill="#EFF1FD"/>
<path d="M41.4858 276.728H44.2312V321.646H41.4858V276.728Z" fill="#EFF1FD"/>
<path d="M69.6213 43.5317V148.913H66.876V43.5317H67.3841H69.6213Z" fill="#EFF1FD"/>
<path d="M66.876 179.006H69.6213V247.733C68.7231 247.491 67.8038 247.336 66.876 247.269L66.876 179.006Z" fill="#EFF1FD"/>
<path d="M66.876 276.687C67.8038 276.621 68.7232 276.466 69.6213 276.223V321.646H66.876V276.687Z" fill="#EFF1FD"/>
<path d="M95.0086 43.5317V151.699C94.152 151.087 93.2315 150.569 92.2632 150.154V43.5317L95.0086 43.5317Z" fill="#EFF1FD"/>
<path d="M92.2632 177.775C93.2301 177.36 94.1503 176.843 95.0086 176.234V321.646H92.2632V177.775Z" fill="#EFF1FD"/>
<path d="M117.653 43.5317H120.399V321.646H117.653V43.5317Z" fill="#EFF1FD"/>
<path d="M143.044 43.5317H145.789V321.646H143.044V43.5317Z" fill="#EFF1FD"/>
<path d="M171.176 43.9717V321.646H168.431V43.5692C169.355 43.6263 170.274 43.7609 171.176 43.9717Z" fill="#EFF1FD"/>
<path d="M196.567 76.9127V321.646H193.838V75.835C194.053 75.9442 194.272 76.0465 194.493 76.1454C195.167 76.4464 195.859 76.7028 196.567 76.9127Z" fill="#EFF1FD"/>
<path d="M219.212 77.6016H221.957V321.646H219.212V77.6016Z" fill="#EFF1FD"/>
<path d="M244.599 77.6016H247.344V321.646H244.599V77.6016Z" fill="#EFF1FD"/>
<path d="M272.735 87.5088V321.646H270.006V84.7123C270.17 84.859 270.33 85.0022 270.491 85.1523C270.651 85.3023 270.76 85.4012 270.89 85.5308C271.186 85.8139 271.473 86.1003 271.746 86.397C271.855 86.5028 271.954 86.6119 272.053 86.7381C272.066 86.7467 272.078 86.7583 272.087 86.7722C272.192 86.8847 272.295 86.9973 272.39 87.1132C272.486 87.2292 272.619 87.3758 272.735 87.5088Z" fill="#EFF1FD"/>
<path d="M298.138 147.835V246.894C297.231 247.054 296.314 247.156 295.393 247.201V147.617C296.302 147.757 297.219 147.83 298.138 147.835Z" fill="#EFF1FD"/>
<path d="M295.38 276.728H298.125V321.646H295.38V276.728Z" fill="#EFF1FD"/>
<path d="M323.512 147.835V181.813C322.546 182.098 321.627 182.522 320.784 183.072V147.835L323.512 147.835Z" fill="#EFF1FD"/>
<path d="M323.512 277.495V320.879C322.616 321.123 321.704 321.309 320.784 321.435V276.943C321.704 277.068 322.615 277.252 323.512 277.495Z" fill="#EFF1FD"/>
<rect x="55.4888" y="327.789" width="25.2574" height="6.00574" rx="3.00287" transform="rotate(-180 55.4888 327.789)" fill="#7986BF"/>
<rect x="334.152" y="327.789" width="276.222" height="6.00574" rx="3.00287" transform="rotate(-180 334.152 327.789)" fill="#7986BF"/>
<path d="M75.8691 62.6061H91.5911C92.011 62.6034 92.4146 62.7687 92.7118 63.0654C93.0091 63.362 93.1753 63.7652 93.1735 64.1851V101.85H75.8691V62.6061Z" fill="#6675AD"/>
<path d="M74.7572 62.6061H90.4792V101.85H73.1714V64.1851C73.1714 63.7681 73.337 63.3682 73.6319 63.0734C73.9267 62.7786 74.3266 62.6129 74.7436 62.6129L74.7572 62.6061Z" fill="#7986BF"/>
<circle cx="81.5816" cy="74.7233" r="4.15387" fill="#6675AD"/>
<ellipse cx="81.5813" cy="74.7233" rx="1.88595" ry="1.88595" fill="#F3F4FE"/>
<ellipse cx="81.5812" cy="94.0159" rx="6.75259" ry="6.75259" fill="#6675AD"/>
<ellipse cx="81.5816" cy="94.0159" rx="3.06254" ry="3.06254" fill="#F3F4FE"/>
<path d="M109.762 62.6061H125.484C126.352 62.6061 127.056 63.31 127.056 64.1783V101.85H109.762V62.6061Z" fill="#6675AD"/>
<path d="M108.636 62.6061H124.358V101.85H107.064V64.1851C107.062 63.767 107.227 63.3653 107.522 63.069C107.817 62.7727 108.218 62.6061 108.636 62.6061V62.6061Z" fill="#7986BF"/>
<circle cx="115.474" cy="74.7233" r="4.15387" fill="#6675AD"/>
<ellipse cx="115.474" cy="74.7233" rx="1.88595" ry="1.88595" fill="#F3F4FE"/>
<ellipse cx="115.474" cy="94.0159" rx="6.75259" ry="6.75259" fill="#6675AD"/>
<ellipse cx="115.474" cy="94.0159" rx="3.06255" ry="3.06254" fill="#F3F4FE"/>
<path d="M48.8896 109.717H151.041L144.316 101.85H55.6184L48.8896 109.717Z" fill="#D2D6FA"/>
<path d="M131.909 109.714V120.273L124.74 125.317V109.714H131.909Z" fill="#D2D6FA"/>
<path d="M76.9333 109.714V125.317L69.7646 120.273V109.714H76.9333Z" fill="#D2D6FA"/>
<path d="M69.7646 109.714H76.9333V112.978H69.7646V109.714Z" fill="#969ECC"/>
<path d="M124.74 109.714H131.909V112.978H124.74V109.714Z" fill="#969ECC"/>
<path d="M225.142 108.125H264.058V151.826H225.142V108.125Z" fill="#D2D6FA"/>
<path d="M228.549 111.948H260.655V147.999H228.549V111.948Z" fill="#F3F4FE"/>
<path d="M238.068 123.724L246.679 139.613L231.339 140.633L238.068 123.724Z" fill="#D2D6FA"/>
<path d="M256.876 116.122L250.874 126.991L244.599 118.492L256.876 116.122Z" fill="#D2D6FA"/>
<path d="M255.935 132.178L254.676 139.681L249.322 136.046L255.935 132.178Z" fill="#D2D6FA"/>
<ellipse cx="182.962" cy="104.653" rx="9.09894" ry="9.09895" fill="#332D52"/>
<path d="M170.805 139.09C175.576 135.426 182.415 136.324 186.078 141.095C189.742 145.867 188.845 152.705 184.073 156.369L156.41 177.611C151.638 181.275 144.8 180.377 141.136 175.606C137.472 170.834 138.37 163.996 143.142 160.332L170.805 139.09Z" fill="#FAEEDE"/>
<ellipse cx="149.81" cy="168.175" rx="11.6909" ry="11.6908" fill="#F2E6D7"/>
<path d="M122.685 137.616C120.369 133.221 122.054 127.78 126.449 125.464C130.843 123.148 136.284 124.833 138.6 129.228L156.631 163.441C158.947 167.836 157.262 173.276 152.867 175.593C148.472 177.909 143.032 176.224 140.716 171.829L122.685 137.616Z" fill="#EF948C"/>
<path d="M133.528 124.168C138.042 126.126 140.114 131.374 138.155 135.888C136.196 140.402 130.948 142.473 126.434 140.514L119.283 137.41C114.769 135.451 112.698 130.204 114.657 125.69C116.616 121.176 121.863 119.105 126.377 121.064L133.528 124.168Z" fill="#EF948C"/>
<path d="M131.95 123.482C133.583 124.19 134.332 126.088 133.623 127.721C132.915 129.354 131.017 130.103 129.384 129.395L112.831 122.211C111.198 121.502 110.449 119.604 111.158 117.972C111.866 116.339 113.764 115.59 115.397 116.298L131.95 123.482Z" fill="#EF948C"/>
<path d="M136.659 125.19C137.638 126.667 137.234 128.659 135.756 129.638C134.279 130.616 132.288 130.212 131.309 128.735L125.788 120.405C124.809 118.927 125.214 116.936 126.691 115.957C128.168 114.978 130.159 115.382 131.138 116.859L136.659 125.19Z" fill="#EA8681"/>
<ellipse cx="131.298" cy="129.146" rx="6.35016" ry="6.35016" fill="#EA8681"/>
<path d="M170.805 139.09C175.576 135.426 182.415 136.324 186.078 141.095C189.742 145.867 188.845 152.705 184.073 156.369L156.41 177.611C151.638 181.275 144.8 180.377 141.136 175.606C137.472 170.834 138.37 163.996 143.142 160.332L170.805 139.09Z" fill="#F2E6D7"/>
<ellipse cx="149.81" cy="168.175" rx="11.6909" ry="11.6908" fill="#FAEEDE"/>
<path d="M122.685 137.616C120.369 133.221 122.054 127.78 126.449 125.464C130.844 123.148 136.284 124.833 138.6 129.228L156.631 163.441C158.948 167.836 157.262 173.277 152.868 175.593C148.473 177.909 143.033 176.224 140.716 171.829L122.685 137.616Z" fill="#EF948C"/>
<path d="M133.528 124.168C138.042 126.126 140.114 131.374 138.155 135.888C136.196 140.402 130.948 142.473 126.434 140.514L119.283 137.41C114.769 135.451 112.698 130.204 114.657 125.69C116.616 121.176 121.863 119.105 126.377 121.064L133.528 124.168Z" fill="#EF948C"/>
<path d="M114.659 125.681C114.978 124.948 115.393 124.26 115.893 123.635C114.575 127.965 116.72 132.595 120.876 134.388L121.746 134.767L125.132 136.237L127.598 140.919L142.303 168.826C143.72 171.509 146.392 173.298 149.412 173.584C152.432 173.871 155.393 172.617 157.289 170.249C156.227 173.737 153.165 176.24 149.535 176.586C145.906 176.932 142.426 175.053 140.724 171.828L123.553 139.238L119.293 137.389C117.125 136.453 115.418 134.692 114.549 132.496C113.68 130.3 113.719 127.848 114.659 125.681Z" fill="#EA8681"/>
<path d="M131.95 123.482C133.583 124.19 134.332 126.088 133.623 127.721C132.915 129.354 131.017 130.103 129.384 129.395L112.831 122.211C111.198 121.502 110.449 119.604 111.158 117.972C111.866 116.339 113.764 115.59 115.397 116.298L131.95 123.482Z" fill="#EF948C"/>
<path d="M136.659 125.19C137.638 126.667 137.234 128.659 135.756 129.637C134.279 130.616 132.288 130.212 131.309 128.735L125.788 120.405C124.809 118.927 125.214 116.936 126.691 115.957C128.168 114.978 130.159 115.382 131.138 116.859L136.659 125.19Z" fill="#EF948C"/>
<ellipse cx="131.298" cy="129.146" rx="6.35016" ry="6.35016" fill="#EF948C"/>
<ellipse cx="183.573" cy="150.639" rx="17.0724" ry="17.0725" fill="#F2E6D7"/>
<path d="M204.38 227.74C190.164 228.062 178.379 216.8 178.056 202.584L177.179 163.937C176.856 149.721 188.119 137.935 202.335 137.612C216.551 137.29 228.337 148.553 228.659 162.768L229.536 201.415C229.859 215.631 218.596 227.417 204.38 227.74Z" fill="#FAEEDE"/>
<path d="M169.772 149.919C169.561 139.39 177.926 130.684 188.455 130.473L217.146 129.899C227.675 129.689 236.381 138.053 236.592 148.582C236.939 165.954 223.138 180.318 205.767 180.665L201.852 180.744C184.481 181.089 170.119 167.289 169.772 149.919V149.919Z" fill="#FAEEDE"/>
<path d="M205.229 180.296H205.26C222.627 179.901 236.385 165.502 235.991 148.136C235.753 137.61 227.026 129.27 216.5 129.508L187.816 130.159C186.505 130.188 185.201 130.353 183.924 130.65L211.46 130.023H211.903C222.259 130.028 230.717 138.298 230.954 148.65C231.304 164.081 220.406 177.487 205.229 180.296Z" fill="#FFF7EE"/>
<path d="M192.535 116.235L192.904 132.482C193.009 137.544 197.148 141.589 202.211 141.581H202.422C204.892 141.524 207.238 140.488 208.943 138.701C210.649 136.914 211.574 134.522 211.514 132.052L211.391 126.486L211.146 115.808C211.033 110.75 206.899 106.708 201.839 106.709H201.624C196.485 106.832 192.417 111.095 192.535 116.235Z" fill="#EF948C"/>
<path d="M148.463 229.011C140.393 229.194 133.703 222.801 133.52 214.731C133.337 206.661 139.73 199.971 147.8 199.788L214.848 198.266C222.918 198.083 229.608 204.477 229.791 212.546C229.974 220.616 223.581 227.306 215.511 227.489L148.463 229.011Z" fill="#332D52"/>
<path d="M200.646 213.932V301.208H229.879V213.932C229.879 205.86 223.335 199.315 215.262 199.315C207.19 199.315 200.646 205.86 200.646 213.932Z" fill="#666DA2"/>
<path d="M200.646 213.932V301.208H208.247V227.202C208.248 222.04 210.971 217.262 215.411 214.629C219.851 211.997 225.35 211.9 229.879 214.376V213.919C229.879 205.846 223.335 199.302 215.262 199.302C207.19 199.302 200.646 205.846 200.646 213.919L200.646 213.932Z" fill="#555A8B"/>
<path d="M200.646 288.63V301.201H229.879V293.221L200.646 288.63Z" fill="#141334"/>
<path d="M103.988 291.41L130.047 301.856L132.99 294.227L161.688 219.88C164.595 212.346 160.843 203.883 153.309 200.976C145.775 198.07 137.311 201.822 134.405 209.356L107.514 279.057L103.998 288.153L103.988 291.41Z" fill="#332D52"/>
<path d="M121.605 313.618L101.151 305.721L105.477 294.516L125.931 302.413L121.605 313.618Z" fill="#EA8681"/>
<path d="M226.227 314.703H204.301V303.476H226.227V314.703Z" fill="#EF948C"/>
<path d="M192.536 116.235L192.904 132.482C192.922 133.335 193.057 134.182 193.306 134.999H193.988C200.793 135.002 207.216 131.854 211.381 126.473L211.136 115.795C211.023 110.736 206.889 106.694 201.829 106.696H201.624C199.154 106.755 196.808 107.793 195.103 109.582C193.399 111.371 192.475 113.764 192.536 116.235Z" fill="#EA8681"/>
<path d="M176.387 108.623C176.388 120.311 185.52 129.962 197.191 130.606C197.583 130.627 197.975 130.637 198.374 130.637C206.304 130.735 213.673 126.562 217.667 119.71C221.661 112.859 221.661 104.389 217.667 97.5383C213.673 90.687 206.304 86.5132 198.374 86.6119C197.975 86.6119 197.583 86.6119 197.191 86.6426C185.521 87.2854 176.388 96.9352 176.387 108.623Z" fill="#EF948C"/>
<path d="M189.316 114.564C189.318 115.867 189.838 117.116 190.762 118.035C190.875 118.148 190.994 118.254 191.103 118.353C191.984 119.078 193.09 119.472 194.23 119.468H194.432C196.988 119.46 199.111 117.494 199.315 114.946C199.315 114.809 199.315 114.673 199.315 114.536C199.318 114.281 199.217 114.035 199.036 113.854C198.854 113.675 198.609 113.576 198.354 113.578L190.23 113.598C189.714 113.619 189.308 114.047 189.316 114.564Z" fill="#962F4A"/>
<path d="M194.339 118.711C194.34 118.965 194.365 119.218 194.414 119.468H194.442C196.998 119.46 199.121 117.494 199.325 114.946C198.972 114.842 198.606 114.79 198.237 114.792C197.201 114.795 196.208 115.209 195.477 115.944C194.746 116.679 194.337 117.674 194.339 118.711Z" fill="#E1617F"/>
<path d="M190.445 113.609C190.486 114.574 191.976 115.341 193.804 115.338C195.632 115.334 197.116 114.557 197.15 113.592L190.445 113.609Z" fill="white"/>
<path d="M176.387 108.623C176.388 120.311 185.52 129.962 197.191 130.606C197.798 130.575 198.401 130.517 198.998 130.432C188.1 128.936 179.979 119.624 179.979 108.623C179.979 97.6217 188.1 88.3096 198.998 86.8131C198.401 86.7313 197.798 86.6733 197.191 86.6426C185.521 87.2854 176.388 96.9353 176.387 108.623Z" fill="#EA8681"/>
<path d="M216.562 147.777V148.006C216.777 155.277 221.626 161.044 227.547 161.129H227.929C234.088 160.969 238.978 154.724 238.842 147.187C238.774 143.013 237.887 139.637 235.432 137.198C233.963 135.844 232.217 134.826 230.316 134.214C228.763 133.754 227.116 133.712 225.541 134.091C220.344 135.347 216.453 141.045 216.562 147.777Z" fill="#FAEEDE"/>
<path d="M216.122 147.494V147.726C216.309 152.975 218.894 157.463 222.564 159.663C220.65 157.095 219.578 153.997 219.495 150.796C219.495 150.717 219.495 150.642 219.495 150.564C219.348 143.722 223.328 137.945 228.703 136.704C229.353 136.549 230.019 136.464 230.688 136.451C231.688 136.432 232.685 136.566 233.644 136.851C234.482 137.1 235.284 137.455 236.032 137.908C234.599 135.955 232.582 134.509 230.272 133.781C228.665 133.302 226.962 133.251 225.33 133.635C219.952 134.886 215.972 140.657 216.122 147.494Z" fill="#F2E6D7"/>
<path d="M220.695 153C218.159 147.545 220.526 141.067 225.981 138.531C231.437 135.995 237.915 138.362 240.451 143.818L255.152 175.446C257.688 180.901 255.321 187.379 249.866 189.915C244.41 192.451 237.932 190.084 235.396 184.629L220.695 153Z" fill="#FAEEDE"/>
<circle cx="244.499" cy="179.845" r="11.6909" fill="#F2E6D7"/>
<path d="M220.695 153C218.159 147.545 220.526 141.067 225.981 138.531C231.437 135.995 237.915 138.362 240.451 143.818L255.152 175.446C257.688 180.901 255.321 187.379 249.866 189.915C244.41 192.451 237.932 190.084 235.396 184.629L220.695 153Z" fill="#FAEEDE"/>
<path d="M220.282 144.858C222.415 141.492 226.215 139.559 230.191 139.818C234.167 140.076 237.685 142.486 239.363 146.1L254.062 177.728C255.254 180.285 255.406 183.205 254.485 185.872C255.592 184.126 256.184 182.103 256.19 180.036C256.189 178.453 255.84 176.89 255.167 175.456L240.468 143.828C238.601 139.798 234.473 137.307 230.037 137.532C225.601 137.757 221.746 140.653 220.296 144.851L220.282 144.858Z" fill="#FFF7EE"/>
<circle cx="244.499" cy="179.845" r="11.6909" fill="#F2E6D7"/>
<rect x="224.743" y="103.575" width="53.9389" height="21.0899" rx="10.545" transform="rotate(-180 224.743 103.575)" fill="#332D52"/>
<ellipse cx="218.587" cy="104.653" rx="9.09895" ry="9.09895" fill="#332D52"/>
<ellipse cx="220.214" cy="106.28" rx="7.47218" ry="7.47219" fill="#49466B"/>
<ellipse cx="220.392" cy="108.626" rx="7.29485" ry="7.29485" fill="#EF948C"/>
<path d="M219.818 110.908V106.348C219.819 106.117 219.93 105.901 220.117 105.766C220.304 105.631 220.544 105.594 220.763 105.666C222.051 106.078 222.924 107.276 222.924 108.628C222.924 109.98 222.051 111.177 220.763 111.59C220.544 111.66 220.305 111.622 220.118 111.488C219.932 111.353 219.82 111.138 219.818 110.908H219.818Z" fill="#EA8681"/>
<ellipse cx="182.963" cy="89.8245" rx="13.9383" ry="13.9383" fill="#332D52"/>
<path d="M170.293 89.8245C170.29 93.1612 171.716 96.3395 174.21 98.5559C176.704 100.772 180.028 101.815 183.341 101.42C177.475 100.721 173.057 95.7462 173.057 89.8381C173.057 83.9301 177.475 78.9551 183.341 78.2564C180.028 77.8614 176.704 78.9039 174.21 81.1203C171.716 83.3368 170.29 86.5151 170.293 89.8518V89.8245Z" fill="#49466B"/>
<ellipse cx="193.998" cy="81.394" rx="9.59004" ry="9.59004" fill="#332D52"/>
<path d="M183.341 106.9C183.391 108.292 184.535 109.395 185.928 109.395C187.321 109.395 188.464 108.292 188.514 106.9C188.515 106.698 188.491 106.497 188.443 106.3C188.166 107.465 187.125 108.288 185.928 108.288C184.73 108.288 183.689 107.465 183.412 106.3C183.364 106.497 183.34 106.698 183.341 106.9Z" fill="#332D52"/>
<path d="M197.552 106.9C197.552 108.33 198.711 109.489 200.14 109.489C201.57 109.489 202.729 108.33 202.729 106.9C202.73 106.698 202.705 106.497 202.657 106.3C202.378 107.464 201.337 108.284 200.14 108.284C198.944 108.284 197.903 107.464 197.623 106.3C197.575 106.497 197.551 106.698 197.552 106.9Z" fill="#332D52"/>
<path d="M200.648 320.282H228.505C228.506 313.502 223.625 307.706 216.943 306.552C216.161 306.42 215.37 306.354 214.577 306.354C210.882 306.353 207.339 307.82 204.727 310.433C202.115 313.045 200.648 316.588 200.648 320.282Z" fill="#332D52"/>
<path d="M200.649 320.282H207.081C207.084 314.065 211.052 308.542 216.944 306.555C216.162 306.424 215.37 306.358 214.577 306.358C210.883 306.357 207.341 307.823 204.729 310.435C202.116 313.046 200.649 316.589 200.649 320.282Z" fill="#49466B"/>
<path d="M196.792 317.762C196.793 318.035 196.82 318.306 196.873 318.574C196.899 318.704 196.932 318.832 196.972 318.959C197.011 319.084 197.056 319.207 197.109 319.327C197.258 319.686 197.461 320.021 197.709 320.32C197.791 320.419 197.876 320.511 197.968 320.603C198.059 320.694 198.154 320.779 198.255 320.859C198.973 321.454 199.876 321.778 200.809 321.776H230.534C232.178 321.78 233.524 320.47 233.565 318.826C233.605 317.183 232.326 315.807 230.684 315.729L208.4 314.242L201.003 313.748C200.338 313.714 199.674 313.848 199.073 314.137C198.899 314.222 198.73 314.319 198.568 314.427C198.411 314.532 198.259 314.646 198.115 314.768C197.971 314.897 197.838 315.038 197.716 315.187C197.633 315.286 197.555 315.39 197.484 315.497C197.226 315.877 197.037 316.298 196.925 316.742C196.89 316.87 196.863 317 196.843 317.131C196.809 317.34 196.792 317.551 196.792 317.762H196.792Z" fill="#332D52"/>
<path d="M196.792 317.762C196.793 318.035 196.82 318.306 196.873 318.574C196.898 318.704 196.931 318.833 196.972 318.959C197.009 319.085 197.055 319.208 197.109 319.327C197.258 319.686 197.461 320.021 197.709 320.32C197.791 320.419 197.876 320.511 197.968 320.603C198.059 320.694 198.154 320.779 198.255 320.859C198.973 321.454 199.876 321.778 200.809 321.776H210.341C208.506 321.781 206.901 320.54 206.443 318.763C205.986 316.986 206.791 315.125 208.401 314.242L201.003 313.748C200.338 313.714 199.674 313.848 199.073 314.137C198.725 314.305 198.402 314.522 198.115 314.781C197.971 314.911 197.838 315.051 197.716 315.201C197.632 315.299 197.554 315.403 197.484 315.511C197.226 315.89 197.037 316.311 196.925 316.756C196.89 316.884 196.863 317.014 196.843 317.145C196.81 317.349 196.793 317.555 196.792 317.762H196.792Z" fill="#49466B"/>
<path d="M122.75 317.13L100.369 307.722L103.916 299.283L122.66 307.163C123.625 307.568 124.389 308.34 124.784 309.309C125.18 310.278 125.174 311.364 124.769 312.329L122.75 317.13Z" fill="#49466B"/>
<path d="M83.457 303.616L109.137 314.41C111.065 309.822 110.4 304.555 107.391 300.591C104.382 296.628 99.4878 294.57 94.551 295.194C89.6142 295.818 85.3852 299.028 83.457 303.616H83.457Z" fill="#332D52"/>
<path d="M83.457 303.616L90.6734 306.665C93.0694 300.962 98.9396 297.522 105.086 298.22C101.682 295.454 97.1732 294.452 92.9178 295.517C88.6624 296.582 85.1571 299.589 83.457 303.633L83.457 303.616Z" fill="#49466B"/>
<path d="M124.45 315.907L87.5601 298.251C86.5687 297.777 85.4265 297.73 84.3994 298.12C83.3723 298.511 82.55 299.305 82.1239 300.318C81.7103 301.3 81.704 302.406 82.1063 303.393C82.5086 304.38 83.2866 305.167 84.269 305.58L121.971 321.428C122.711 321.74 123.544 321.744 124.287 321.441C125.031 321.138 125.623 320.552 125.934 319.812C126.56 318.323 125.907 316.604 124.45 315.907Z" fill="#332D52"/>
<path d="M82.1237 300.321C81.2647 302.366 82.2249 304.72 84.2689 305.58L93.0541 309.273C91.3092 308.548 90.3059 306.704 90.6441 304.845C90.9823 302.986 92.5705 301.614 94.4591 301.549L87.5633 298.244C86.5703 297.77 85.4261 297.723 84.398 298.116C83.3698 298.508 82.5477 299.306 82.1237 300.321Z" fill="#49466B"/>
<path d="M244.503 196.297L246.805 202.859L250.853 214.417L288.483 321.793H296.876L268.031 214.417L264.928 202.859L263.165 196.297H244.503Z" fill="#441242"/>
<path d="M246.805 202.859L250.853 214.417H268.032L264.928 202.859H246.805Z" fill="#2F073A"/>
<path d="M124.297 196.297L121.995 202.859L117.947 214.417L80.3163 321.793H71.9233L100.769 214.417L103.872 202.859L105.635 196.297H124.297Z" fill="#441242"/>
<path d="M121.995 202.859L117.947 214.417H100.769L103.872 202.859H121.995Z" fill="#2F073A"/>
<path d="M286.717 207.855L86.8097 207.855C84.0525 207.857 81.8142 205.626 81.8066 202.869V196.314L291.72 196.314V202.869C291.713 205.626 289.474 207.857 286.717 207.855Z" fill="#441242"/>
<rect x="316.926" y="199.384" width="260.326" height="9.16719" rx="4.5836" transform="rotate(-180 316.926 199.384)" fill="#D8BA9F"/>
<path d="M56.6006 194.803C56.6025 197.334 58.6535 199.385 61.1842 199.387H312.343C314.874 199.387 316.927 197.335 316.927 194.803C316.928 194.262 316.832 193.725 316.644 193.218C315.979 195.018 314.262 196.213 312.343 196.212H61.1842C59.968 196.215 58.8012 195.731 57.9443 194.868C57.4731 194.404 57.1119 193.84 56.8871 193.218C56.6975 193.725 56.6004 194.262 56.6006 194.803Z" fill="#C89F87"/>
<ellipse cx="284.115" cy="203.5" rx="1.69499" ry="1.69497" fill="#D8BA9F"/>
<ellipse cx="283.746" cy="203.613" rx="2.06668" ry="2.0667" fill="#2F073A"/>
<ellipse cx="284.115" cy="203.5" rx="1.69499" ry="1.69497" fill="#D8BA9F"/>
<path d="M282.42 203.5C282.42 204.442 283.183 205.205 284.125 205.205H284.302C283.467 205.08 282.849 204.363 282.849 203.519C282.849 202.674 283.467 201.957 284.302 201.832C284.243 201.829 284.184 201.829 284.125 201.832C283.198 201.832 282.44 202.573 282.42 203.5H282.42Z" fill="#C89F87"/>
<path d="M284.115 204.428C284.201 204.455 284.29 204.469 284.381 204.469C284.916 204.469 285.349 204.035 285.349 203.5C285.349 202.965 284.916 202.531 284.381 202.531C284.29 202.531 284.201 202.545 284.115 202.572C284.533 202.687 284.823 203.067 284.823 203.5C284.823 203.933 284.533 204.313 284.115 204.428H284.115Z" fill="#F5EAE4"/>
<ellipse cx="274.634" cy="203.5" rx="1.69498" ry="1.69497" fill="#D8BA9F"/>
<ellipse cx="274.265" cy="203.613" rx="2.06671" ry="2.0667" fill="#2F073A"/>
<ellipse cx="274.634" cy="203.5" rx="1.69498" ry="1.69497" fill="#D8BA9F"/>
<path d="M272.942 203.5C272.942 204.442 273.706 205.205 274.648 205.205H274.825C273.99 205.08 273.372 204.363 273.372 203.519C273.372 202.674 273.99 201.957 274.825 201.832C274.766 201.829 274.707 201.829 274.648 201.832C273.72 201.832 272.963 202.573 272.942 203.5H272.942Z" fill="#C89F87"/>
<path d="M274.634 204.428C274.72 204.455 274.81 204.469 274.9 204.469C275.435 204.469 275.868 204.035 275.868 203.5C275.868 202.965 275.435 202.531 274.9 202.531C274.81 202.531 274.72 202.545 274.634 202.572C275.052 202.687 275.342 203.067 275.342 203.5C275.342 203.933 275.052 204.313 274.634 204.428H274.634Z" fill="#F5EAE4"/>
<ellipse cx="90.3258" cy="203.5" rx="1.69496" ry="1.69497" fill="#D8BA9F"/>
<ellipse cx="90.6941" cy="203.613" rx="2.0667" ry="2.0667" fill="#2F073A"/>
<ellipse cx="90.3258" cy="203.5" rx="1.69496" ry="1.69497" fill="#D8BA9F"/>
<path d="M92.0207 203.5C92.0207 204.442 91.2573 205.205 90.3155 205.205H90.1382C90.9732 205.08 91.5912 204.363 91.5912 203.519C91.5912 202.674 90.9732 201.957 90.1382 201.832C90.1972 201.829 90.2565 201.829 90.3155 201.832C91.2428 201.832 92.0003 202.573 92.0207 203.5Z" fill="#C89F87"/>
<path d="M90.3259 204.428C90.2399 204.455 90.1501 204.469 90.0599 204.469C89.7138 204.469 89.3941 204.284 89.2211 203.984C89.0481 203.685 89.0481 203.315 89.2211 203.016C89.3941 202.716 89.7138 202.531 90.0599 202.531C90.1501 202.531 90.2399 202.545 90.3259 202.572C89.9122 202.691 89.6272 203.07 89.6272 203.5C89.6272 203.93 89.9122 204.309 90.3259 204.428Z" fill="#F5EAE4"/>
<ellipse cx="99.8068" cy="203.5" rx="1.69498" ry="1.69497" fill="#D8BA9F"/>
<circle cx="100.175" cy="203.613" r="2.0667" fill="#2F073A"/>
<ellipse cx="99.8068" cy="203.5" rx="1.69498" ry="1.69497" fill="#D8BA9F"/>
<path d="M101.498 203.5C101.498 204.442 100.735 205.205 99.7931 205.205H99.6157C100.451 205.08 101.069 204.363 101.069 203.519C101.069 202.674 100.451 201.957 99.6157 201.832C99.6748 201.829 99.734 201.829 99.7931 201.832C100.72 201.832 101.478 202.573 101.498 203.5Z" fill="#C89F87"/>
<path d="M99.8068 204.428C99.7208 204.455 99.6311 204.469 99.5408 204.469C99.0059 204.469 98.5723 204.035 98.5723 203.5C98.5723 202.965 99.0059 202.531 99.5408 202.531C99.6311 202.531 99.7208 202.545 99.8068 202.572C99.3888 202.687 99.0989 203.067 99.0989 203.5C99.0989 203.933 99.3888 204.313 99.8068 204.428Z" fill="#F5EAE4"/>
<path d="M202.332 172.851C204.104 172.689 205.673 173.994 205.835 175.767C205.997 177.539 204.692 179.108 202.919 179.27L192.924 180.185C191.152 180.347 189.583 179.042 189.421 177.269C189.259 175.497 190.564 173.928 192.337 173.766L202.332 172.851Z" fill="#EA8681"/>
<ellipse cx="203.592" cy="178.781" rx="6.35015" ry="6.35017" fill="#EA8681"/>
<path d="M206.975 190.398C202.008 190.349 198.021 186.282 198.07 181.314C198.12 176.346 202.187 172.36 207.154 172.409L245.826 172.794C250.794 172.843 254.781 176.91 254.731 181.878C254.682 186.845 250.615 190.832 245.647 190.783L206.975 190.398Z" fill="#EF948C"/>
<path d="M200.24 174.45C204.108 171.408 209.709 172.078 212.751 175.946C215.792 179.814 215.122 185.416 211.254 188.457L205.126 193.276C201.258 196.318 195.657 195.648 192.615 191.78C189.573 187.912 190.243 182.311 194.111 179.269L200.24 174.45Z" fill="#EF948C"/>
<path d="M198.885 175.512C200.284 174.412 202.31 174.654 203.411 176.053C204.511 177.453 204.269 179.479 202.869 180.579L188.685 191.733C187.286 192.833 185.26 192.591 184.16 191.192C183.059 189.792 183.302 187.766 184.701 186.666L198.885 175.512Z" fill="#EF948C"/>
<path d="M202.332 172.851C204.104 172.689 205.673 173.994 205.835 175.767C205.997 177.539 204.692 179.108 202.919 179.27L192.924 180.185C191.152 180.347 189.583 179.042 189.421 177.269C189.259 175.497 190.564 173.928 192.337 173.766L202.332 172.851Z" fill="#EF948C"/>
<ellipse cx="203.592" cy="178.781" rx="6.35015" ry="6.35017" fill="#EF948C"/>
<path d="M206.975 190.398C202.008 190.349 198.021 186.282 198.07 181.314C198.12 176.346 202.187 172.36 207.154 172.409L245.826 172.794C250.794 172.843 254.781 176.91 254.731 181.878C254.682 186.845 250.615 190.832 245.647 190.783L206.975 190.398Z" fill="#EF948C"/>
<path d="M200.24 174.45C204.108 171.408 209.709 172.078 212.751 175.946C215.792 179.814 215.122 185.416 211.254 188.457L205.126 193.276C201.258 196.318 195.657 195.648 192.615 191.78C189.573 187.912 190.243 182.311 194.111 179.269L200.24 174.45Z" fill="#EF948C"/>
<path d="M191.751 189.528C194.793 193.396 200.395 194.066 204.264 191.025L205.287 190.216L207.906 188.17L211.596 188.204L244.738 188.545C249.706 188.595 253.773 184.608 253.823 179.641V179.549C253.824 178.82 253.735 178.094 253.557 177.387C254.32 178.732 254.72 180.253 254.717 181.8V181.892C254.668 186.859 250.603 190.847 245.635 190.8L208.803 190.435L205.154 193.303C202.774 195.172 199.609 195.706 196.748 194.722C193.887 193.738 191.72 191.37 190.994 188.433C191.219 188.816 191.472 189.182 191.751 189.528Z" fill="#F3A6A0"/>
<path d="M198.886 175.512C200.285 174.412 202.311 174.654 203.411 176.053C204.511 177.453 204.269 179.479 202.87 180.579L188.686 191.733C187.286 192.833 185.26 192.591 184.16 191.192C183.06 189.793 183.302 187.766 184.701 186.666L198.886 175.512Z" fill="#EF948C"/>
<path d="M203.264 181.298C204.485 180.337 206.254 180.549 207.215 181.77C208.175 182.992 207.964 184.76 206.742 185.721L202.625 188.959C201.403 189.919 199.634 189.708 198.674 188.486C197.713 187.265 197.925 185.496 199.146 184.536L203.264 181.298Z" fill="#F3A6A0"/>
<ellipse cx="181.608" cy="107.115" rx="9.40928" ry="9.40929" stroke="white" stroke-width="2.85"/>
<ellipse cx="203.81" cy="107.115" rx="9.40928" ry="9.40929" stroke="white" stroke-width="2.85"/>
<path d="M191.011 107.484H194.408" stroke="white" stroke-width="2.85"/>
<path d="M103.988 291.41L130.047 301.856L132.99 294.227L107.514 279.057L103.998 288.156L103.988 291.41Z" fill="#141334"/>
<path d="M142.041 187.376H136.707V186.352C136.707 185.384 137.492 184.6 138.46 184.6H140.291C141.26 184.6 142.044 185.384 142.044 186.352V187.376L142.041 187.376Z" fill="#ABB2D8"/>
<path d="M147.375 187.376H142.041V186.352C142.041 185.384 142.826 184.6 143.794 184.6H145.625C146.594 184.6 147.378 185.384 147.378 186.352V187.376L147.375 187.376Z" fill="#ABB2D8"/>
<path d="M152.712 187.376H147.378V186.352C147.378 185.384 148.163 184.6 149.131 184.6H150.962C151.931 184.6 152.715 185.384 152.715 186.352V187.376L152.712 187.376Z" fill="#ABB2D8"/>
<path d="M158.046 187.376H152.712V186.352C152.712 185.384 153.497 184.6 154.465 184.6H156.296C157.264 184.6 158.049 185.384 158.049 186.352V187.376L158.046 187.376Z" fill="#ABB2D8"/>
<path d="M163.38 187.376H158.046V186.352C158.046 185.384 158.831 184.6 159.799 184.6H161.63C162.598 184.6 163.383 185.384 163.383 186.352V187.376L163.38 187.376Z" fill="#ABB2D8"/>
<path d="M168.717 187.376H163.383V186.352C163.383 185.384 164.168 184.6 165.136 184.6H166.964C167.932 184.6 168.717 185.384 168.717 186.352V187.376L168.717 187.376Z" fill="#ABB2D8"/>
<path d="M174.047 187.376H168.714V186.352C168.714 185.384 169.498 184.6 170.466 184.6H172.298C173.266 184.6 174.051 185.384 174.051 186.352V187.376L174.047 187.376Z" fill="#ABB2D8"/>
<rect x="181.141" y="190.216" width="60.8893" height="4.34824" rx="2.17412" transform="rotate(-180 181.141 190.216)" fill="#5D6295"/>
<path d="M137.024 190.216H86.2092C84.0798 190.217 82.2231 188.769 81.704 186.704L71.8139 147.361C71.465 145.972 71.776 144.5 72.6569 143.37C73.5378 142.241 74.8901 141.581 76.3224 141.581H121.162C123.292 141.581 125.148 143.028 125.668 145.093L137.024 190.216Z" fill="#666DA2"/>
<path d="M71.8108 147.365L81.701 186.704C82.2223 188.769 84.0792 190.217 86.2095 190.22H137.024L135.93 185.872H95.7894C93.6586 185.87 91.801 184.422 91.2808 182.355L81.3907 143.017C81.2729 142.548 81.2281 142.063 81.2576 141.581H76.3194C74.8868 141.582 73.5346 142.243 72.6539 143.373C71.7731 144.503 71.4621 145.975 71.8108 147.365Z" fill="#5D6295"/>
<circle cx="101.236" cy="167.2" r="2.54416" fill="#ABB2D8"/>
<path d="M97.832 171.006C98.9375 172.713 100.97 173.577 102.966 173.188C104.963 172.8 106.523 171.237 106.907 169.24C107.292 167.242 106.424 165.212 104.714 164.11C105.967 166.081 105.683 168.658 104.031 170.309C102.38 171.961 99.8034 172.244 97.832 170.992L97.832 171.006Z" fill="#ABB2D8"/>
<path d="M200.645 303.544H229.879L232.86 296.031L195.325 290.138L200.645 303.544Z" fill="#332D52"/>
<circle cx="227.451" cy="300.413" r="1.82455" fill="#141334"/>
<ellipse cx="227.557" cy="300.908" rx="1.33005" ry="1.33008" fill="#666DA2"/>
<path d="M227.543 301.777C227.601 301.788 227.661 301.794 227.72 301.794C228.19 301.765 228.555 301.376 228.555 300.906C228.555 300.436 228.19 300.047 227.72 300.018C227.661 300.018 227.601 300.024 227.543 300.038C227.952 300.127 228.243 300.489 228.243 300.908C228.243 301.326 227.952 301.688 227.543 301.777Z" fill="#332D52"/>
<path d="M227.761 299.796C227.686 299.779 227.61 299.771 227.533 299.772C226.931 299.805 226.459 300.303 226.459 300.906C226.459 301.509 226.931 302.007 227.533 302.04C227.61 302.041 227.686 302.033 227.761 302.016C227.239 301.903 226.865 301.441 226.865 300.906C226.865 300.371 227.239 299.909 227.761 299.796Z" fill="#9DA5D1"/>
<path d="M101.805 293.187L128.938 304.062L134.501 298.2L101.853 278.764L101.805 293.187Z" fill="#262344"/>
<ellipse cx="127.993" cy="299.155" rx="1.82455" ry="1.82458" fill="#141334"/>
<ellipse cx="128.099" cy="299.649" rx="1.33006" ry="1.33008" fill="#666DA2"/>
<path d="M128.099 300.526C128.157 300.54 128.217 300.546 128.276 300.546C128.746 300.517 129.112 300.128 129.112 299.658C129.112 299.188 128.746 298.799 128.276 298.769C128.217 298.764 128.158 298.764 128.099 298.769C128.508 298.859 128.799 299.221 128.799 299.639C128.799 300.058 128.508 300.42 128.099 300.509L128.099 300.526Z" fill="#332D52"/>
<path d="M128.3 298.538C128.225 298.521 128.149 298.513 128.072 298.514C127.47 298.547 126.999 299.045 126.999 299.648C126.999 300.251 127.47 300.749 128.072 300.782C128.149 300.783 128.225 300.775 128.3 300.758C127.778 300.645 127.404 300.183 127.404 299.648C127.404 299.113 127.778 298.65 128.3 298.538Z" fill="#9DA5D1"/>
</svg>
