<svg width="348" height="348" viewBox="0 0 348 348" fill="none" xmlns="http://www.w3.org/2000/svg">
<path d="M12.9811 228.972V232.522C12.9802 244.499 17.7376 255.985 26.2065 264.453C34.6754 272.921 46.1618 277.678 58.1382 277.676H76.4623C81.6067 277.678 85.7761 281.849 85.7761 286.993V321.749H241.526V286.993C241.524 283.159 243.874 279.716 247.446 278.321C248.532 277.892 249.689 277.673 250.857 277.676H281.666C282.15 277.676 282.635 277.669 283.119 277.656C293.67 277.339 303.804 273.464 311.875 266.661C312.905 265.794 313.895 264.885 314.846 263.932C328.27 250.512 332.286 230.326 325.023 212.789C317.76 195.252 300.648 183.818 281.666 183.819H245.499C241.094 183.892 236.991 181.584 234.767 177.781C232.543 173.978 232.543 169.271 234.767 165.468C236.991 161.665 241.094 159.357 245.499 159.431H306.504C322.252 159.431 335.018 146.664 335.018 130.916C335.018 115.168 322.252 102.402 306.504 102.402C293.453 102.402 282.872 91.8228 282.87 78.7714V54.694C282.871 52.2232 281.89 49.8533 280.143 48.1059C278.396 46.3585 276.027 45.3768 273.556 45.3768H56.4534C46.1926 45.2646 36.6627 50.6744 31.4996 59.5423C26.3365 68.4103 26.3365 79.3686 31.4996 88.2365C36.6627 97.1045 46.1926 102.514 56.4534 102.402H79.6442C88.7967 102.402 96.2168 109.821 96.2187 118.973C96.2168 128.126 88.7967 135.544 79.6442 135.544C79.3406 135.544 79.0405 135.544 78.7404 135.565C67.2273 136.048 58.1451 145.527 58.1552 157.05V171.715C58.1562 178.333 53.8138 184.167 47.4739 186.066C38.7569 188.675 26.7113 194.176 19.4029 205.505C17.4697 208.513 15.9649 211.775 14.9318 215.198C13.6003 219.667 12.9428 224.309 12.9811 228.972Z" fill="#F3F4FE"/>
<rect x="24.73" y="35.2376" width="291.9" height="167.004" rx="17.7" fill="#D2D6FA"/>
<rect x="159.809" y="64.0658" width="138.691" height="122.283" rx="28.4" fill="#F3F4FE"/>
<path d="M195.189 111.041L219.894 105.87C220.249 107.571 220.428 109.303 220.429 111.041C220.429 124.887 209.035 136.278 195.192 136.278C181.349 136.278 169.955 124.883 169.955 111.041C169.955 97.1978 181.349 85.8036 195.192 85.8036L195.189 111.041Z" fill="#BCBFF6"/>
<path d="M195.189 111.041L190.029 86.3527C191.73 85.9973 193.464 85.8179 195.202 85.8173C209.049 85.8173 220.439 97.2114 220.439 111.054C220.439 124.897 209.045 136.291 195.202 136.291C181.359 136.291 169.965 124.897 169.965 111.054L195.189 111.041Z" fill="#D2D6FA"/>
<rect x="227.472" y="97.2319" width="14.2862" height="8.09969" rx="4.04985" fill="#D2D6FA"/>
<rect x="245.229" y="97.2319" width="44.649" height="8.09969" rx="4.04985" fill="#D2D6FA"/>
<rect x="245.84" y="108.531" width="25.902" height="8.09969" rx="4.04985" fill="#D2D6FA"/>
<rect x="245.229" y="119.273" width="44.649" height="8.0997" rx="4.04985" fill="#D2D6FA"/>
<rect x="169.948" y="149.8" width="119.93" height="8.09969" rx="4.04984" fill="#D2D6FA"/>
<rect x="169.948" y="161.303" width="119.93" height="12.8777" rx="6.43884" fill="#D2D6FA"/>
<rect x="227.472" y="119.273" width="14.2862" height="8.0997" rx="4.04985" fill="#D2D6FA"/>
<rect x="45.8267" y="62.0434" width="84.5029" height="32.2522" rx="11.38" fill="#BCBFF6"/>
<rect x="49.1958" y="66.4223" width="29.1043" height="23.4977" rx="5.7" fill="#F3F4FE"/>
<rect x="54.3594" y="79.3102" width="2.79311" height="9.26607" rx="1.39656" fill="#D2D6FA"/>
<rect x="59.0933" y="75.7498" width="2.79311" height="12.8265" rx="1.39656" fill="#D2D6FA"/>
<rect x="63.8711" y="71.7835" width="2.79313" height="16.7928" rx="1.39656" fill="#D2D6FA"/>
<rect x="69.9824" y="68.7653" width="2.79312" height="19.811" rx="1.39656" fill="#D2D6FA"/>
<rect x="83.2285" y="70.4466" width="42.8653" height="3.15463" rx="1.57732" fill="#F3F4FE"/>
<rect x="83.2285" y="77.189" width="28.8111" height="3.15462" rx="1.57731" fill="#F3F4FE"/>
<path d="M30.763 35.2376H310.593C313.927 35.2376 316.63 37.9402 316.63 41.274V49.5204H24.73V41.274C24.73 37.9416 27.4305 35.2395 30.763 35.2376V35.2376Z" fill="#BCBFF6"/>
<ellipse cx="63.3659" cy="42.379" rx="3.4445" ry="3.44451" fill="white"/>
<ellipse cx="50.5021" cy="42.379" rx="3.4445" ry="3.44451" fill="white"/>
<ellipse cx="76.2267" cy="42.379" rx="3.4445" ry="3.44451" fill="white"/>
<rect x="45.8267" y="124.641" width="35.6319" height="61.8203" rx="17.8159" fill="#BCBFF6"/>
<rect x="87.6553" y="151.062" width="35.6319" height="35.3966" rx="17.6983" fill="#BCBFF6"/>
<rect x="129.647" y="164.263" width="23.733" height="22.1983" rx="11.0992" fill="#BCBFF6"/>
<rect x="50.4614" y="327.754" width="25.2574" height="6.00571" rx="3.00285" transform="rotate(-180 50.4614 327.754)" fill="#D2D6FA"/>
<rect x="329.128" y="327.754" width="276.222" height="6.00571" rx="3.00285" transform="rotate(-180 329.128 327.754)" fill="#D2D6FA"/>
<path d="M90.1286 90.6415C90.6854 92.3133 89.7815 94.1199 88.1097 94.6766C86.438 95.2334 84.6314 94.3295 84.0747 92.6578L80.9366 83.2355C80.3799 81.5637 81.2837 79.7572 82.9555 79.2004C84.6272 78.6436 86.4338 79.5475 86.9906 81.2193L90.1286 90.6415Z" fill="#F9A0B4"/>
<circle cx="84.7053" cy="93.1735" r="6.28536" fill="#F9A0B4"/>
<path d="M187.699 321.742H160.737C160.737 314.296 166.773 308.261 174.218 308.261C181.664 308.261 187.699 314.296 187.699 321.742Z" fill="#33557A"/>
<path d="M149.046 321.742H122.083C122.083 314.296 128.119 308.261 135.564 308.261C143.01 308.261 149.046 314.296 149.046 321.742Z" fill="#33557A"/>
<path d="M145.165 194.033V321.738H125.961V203.398C125.961 198.221 128.717 194.019 132.1 194.019L145.165 194.033Z" fill="#FFB2BF"/>
<path d="M125.961 291.519H145.165V321.742H125.961V291.519Z" fill="#D5E6BC"/>
<path d="M125.961 291.519H130.763V321.742H125.961V291.519Z" fill="#C3D3A7"/>
<path d="M135.564 291.519H140.366V321.742H135.564V291.519Z" fill="#C3D3A7"/>
<path d="M125.961 287.328H145.165V291.515H125.961V287.328Z" fill="#F9A0B4"/>
<path d="M184.66 316.862H165.132L159.88 288.982L148.421 228.075L145.158 210.703L144.298 206.123C143.759 203.261 144.135 200.543 145.158 198.599C145.956 197.088 147.146 196.045 148.606 195.772L161.436 193.357L167.963 228.075L178.747 285.438L184.66 316.862Z" fill="#FFB2BF"/>
<path d="M184.66 316.862H165.126L159.88 288.982L178.754 285.438L184.66 316.862Z" fill="#D5E6BC"/>
<path d="M159.878 288.986L164.596 288.092L170.223 317.787L165.505 318.681L159.878 288.986Z" fill="#C3D3A7"/>
<path d="M169.312 287.2L174.03 286.306L179.657 316L174.939 316.894L169.312 287.2Z" fill="#C3D3A7"/>
<path d="M178.102 282.116L159.27 285.779L159.88 288.982L178.754 285.438L178.102 282.116Z" fill="#F9A0B4"/>
<path d="M167.97 228.075H148.422L145.158 210.703V228.075H125.961V203.411C125.961 198.234 128.717 194.033 132.1 194.033H145.158V198.599C145.956 197.088 147.146 196.045 148.606 195.772L161.436 193.357L167.97 228.075Z" fill="#F9A0B4"/>
<path d="M121.882 316.347L148.783 313.369C149.969 313.237 151.156 313.617 152.045 314.413C152.934 315.209 153.442 316.347 153.442 317.54C153.442 319.859 151.562 321.739 149.244 321.739H122.179C120.685 321.739 119.474 320.528 119.474 319.034C119.474 317.656 120.512 316.498 121.882 316.347Z" fill="#55A4AB"/>
<path d="M153.438 317.544C153.439 318.657 152.997 319.724 152.211 320.511C151.424 321.298 150.356 321.739 149.243 321.739H142.542C144.468 321.743 146.15 320.435 146.619 318.567C147.089 316.699 146.226 314.751 144.527 313.843L148.783 313.369C149.969 313.238 151.155 313.619 152.044 314.416C152.932 315.213 153.44 316.35 153.438 317.544Z" fill="#33557A"/>
<path d="M160.535 316.347L187.436 313.369C188.623 313.237 189.809 313.617 190.698 314.413C191.588 315.209 192.096 316.347 192.095 317.54C192.095 319.859 190.215 321.739 187.897 321.739H160.832C159.338 321.739 158.127 320.528 158.127 319.034C158.128 317.656 159.165 316.498 160.535 316.347Z" fill="#55A4AB"/>
<path d="M192.095 317.544C192.093 319.861 190.214 321.739 187.897 321.739H181.199C183.124 321.741 184.804 320.432 185.273 318.565C185.742 316.697 184.879 314.75 183.18 313.843L187.436 313.369C188.623 313.238 189.809 313.619 190.698 314.416C191.588 315.212 192.095 316.35 192.095 317.544Z" fill="#33557A"/>
<path d="M132.932 155.014C129.48 158.087 124.246 157.994 120.907 154.799C120.733 154.636 120.566 154.458 120.402 154.281L115.218 148.456L77.2876 105.826C74.0292 102.165 74.3551 96.5565 78.0157 93.298C81.6764 90.0395 87.2854 90.3655 90.5439 94.0261L119.553 126.63L127.093 135.121L133.658 142.502C136.91 146.158 136.585 151.758 132.932 155.014Z" fill="#FFB2BF"/>
<path d="M133.658 142.488L127.093 135.121L119.553 126.647C119.553 126.732 119.532 126.81 119.522 126.892C119.522 126.892 121.367 133.577 115.218 148.47L120.402 154.295C120.562 154.475 120.743 154.636 120.907 154.813C124.34 158.148 129.801 158.157 133.244 154.832C136.687 151.507 136.871 146.05 133.658 142.502V142.488Z" fill="#F9A0B4"/>
<path d="M176.68 176.268C174.62 177.407 172.19 177.68 169.928 177.026C167.666 176.373 165.756 174.846 164.621 172.782L160.392 165.133L157.858 160.539L150.335 146.898C147.994 142.662 149.481 137.332 153.677 134.92L153.817 134.842C155.877 133.704 158.304 133.432 160.565 134.085C162.825 134.738 164.734 136.263 165.869 138.324L166.971 140.315L180.159 164.219C181.296 166.278 181.568 168.704 180.915 170.964C180.263 173.224 178.74 175.132 176.68 176.268Z" fill="#FFB2BF"/>
<path d="M202.057 159.564C206.957 159.541 210.947 163.494 210.971 168.394C210.994 173.294 207.04 177.285 202.14 177.308L172.562 177.447C167.662 177.47 163.671 173.517 163.648 168.617C163.625 163.717 167.579 159.726 172.479 159.703L202.057 159.564Z" fill="#FFB2BF"/>
<ellipse rx="11.9057" ry="9.38883" transform="matrix(0.639171 -0.769065 0.769065 0.63917 205.658 166.357)" fill="#FFB2BF"/>
<path opacity="0.38" d="M213.26 157.18C209.482 154.039 203.312 155.134 199.1 159.588L177.663 159.69L165.87 138.317C164.03 134.968 160.253 133.174 156.495 133.864C152.737 134.555 149.844 137.575 149.315 141.359C150.751 138.361 153.743 136.417 157.066 136.324C160.389 136.232 163.485 138.005 165.085 140.919L175.46 159.71L176.878 162.289H179.085L197.119 162.203H198.316C199.284 161.17 200.399 160.284 201.624 159.574C205.352 157.449 209.615 157.378 212.49 159.768C214.942 161.815 215.822 165.16 215.15 168.635C216.93 164.332 216.326 159.731 213.26 157.18Z" fill="#F9E0E5"/>
<path d="M194.168 156.697C194.903 156.694 195.501 157.286 195.504 158.021L195.603 178.916C195.606 179.651 195.014 180.249 194.279 180.252C193.544 180.256 192.946 179.663 192.943 178.929L192.844 158.033C192.841 157.299 193.433 156.7 194.168 156.697Z" fill="#55A4AB"/>
<path d="M190.879 158.26C191.613 158.256 192.212 158.849 192.215 159.583L192.3 177.6C192.304 178.335 191.711 178.933 190.976 178.937C190.242 178.94 189.644 178.347 189.64 177.613L189.555 159.596C189.552 158.861 190.144 158.263 190.879 158.26Z" fill="#55A4AB"/>
<path d="M130.159 158.183V178.618C130.159 186.263 136.357 192.461 144.002 192.461C151.647 192.461 157.845 186.263 157.845 178.618V158.183L130.159 158.183Z" fill="#FDA541"/>
<path d="M138.777 117.476V138.62C138.779 141.321 140.968 143.509 143.668 143.511H144.329C147.031 143.511 149.222 141.322 149.223 138.62V117.476C149.224 116.177 148.709 114.932 147.791 114.013C146.873 113.095 145.628 112.579 144.329 112.579H143.664C140.963 112.582 138.775 114.774 138.777 117.476H138.777Z" fill="#FFB2BF"/>
<path d="M164.55 154.663V155.424C164.548 161.002 160.026 165.523 154.448 165.525H132.768C127.19 165.523 122.67 161.001 122.67 155.424V154.663C122.673 149.11 124.881 143.786 128.809 139.862C129.485 139.187 130.207 138.558 130.967 137.979C137.302 133.174 145.812 132.372 152.934 135.909C160.055 139.446 164.558 146.712 164.556 154.663H164.55Z" fill="#FDA541"/>
<path d="M161.115 143.173C158.352 138.986 154.187 135.92 149.366 134.528C150.922 135.239 152.385 136.136 153.725 137.198C158.744 141.163 161.671 147.209 161.668 153.606V154.363C161.663 158.631 158.981 162.438 154.963 163.878V177.56C154.96 181.814 153.003 185.83 149.655 188.454C146.307 191.078 141.94 192.018 137.809 191.004C142.101 193.151 147.199 192.922 151.282 190.398C155.364 187.875 157.849 183.417 157.848 178.618V164.939C161.866 163.499 164.548 159.692 164.55 155.424V154.663C164.557 150.579 163.363 146.583 161.115 143.173Z" fill="#FFBA76"/>
<path d="M156.607 138.259C153.076 140.428 149.043 141.644 144.902 141.789C144.602 141.806 144.302 141.809 143.998 141.809C143.5 141.809 143.003 141.792 142.515 141.761C138.401 141.517 134.42 140.214 130.957 137.979C138.57 132.211 149.122 132.326 156.607 138.259Z" fill="#FFB2BF"/>
<ellipse cx="158.677" cy="107.402" rx="5.17699" ry="5.17699" fill="#F9A0B4"/>
<ellipse cx="130.961" cy="107.402" rx="5.177" ry="5.17699" fill="#F9A0B4"/>
<path d="M168.423 221.248H122.042C120.531 221.249 119.095 220.593 118.106 219.45C117.117 218.308 116.674 216.792 116.892 215.297C118.966 201.389 119.873 176.991 145.161 176.991C170.153 176.991 171.96 201.975 173.583 215.423C173.762 216.899 173.3 218.382 172.313 219.495C171.327 220.609 169.911 221.247 168.423 221.248Z" fill="#55A4AB"/>
<path d="M168.427 221.244H159.649C161.137 221.245 162.554 220.609 163.541 219.496C164.528 218.383 164.991 216.9 164.812 215.423C163.284 202.804 161.603 180.013 140.728 177.267C142.198 177.081 143.679 176.99 145.162 176.994C170.156 176.994 171.96 201.979 173.584 215.423C173.762 216.899 173.3 218.38 172.315 219.493C171.329 220.606 169.914 221.243 168.427 221.244Z" fill="#6FBFC1"/>
<rect x="127.741" y="85.3364" width="33.3264" height="77.5389" rx="16.6632" fill="#652138"/>
<rect x="124.948" y="111.041" width="38.9058" height="51.8347" rx="19.4529" fill="#652138"/>
<path d="M161.067 119.434V102C161.069 97.5791 159.314 93.339 156.189 90.2126C153.064 87.0861 148.825 85.3296 144.404 85.3296C143.79 85.3291 143.176 85.3633 142.566 85.4319C151.004 86.3701 157.389 93.5022 157.391 101.993V119.434C159.216 122.313 160.182 125.652 160.177 129.061V144.889C160.171 154.387 152.785 162.246 143.306 162.841C143.06 162.841 142.815 162.8 142.573 162.773C142.33 162.8 142.085 162.824 141.836 162.841C141.471 162.865 141.106 162.875 140.734 162.875H145.85C150.625 162.876 155.206 160.98 158.583 157.603C161.96 154.227 163.857 149.647 163.857 144.872V129.044C163.859 125.641 162.891 122.307 161.067 119.434Z" fill="#7A314D"/>
<rect x="143.425" y="125.818" width="11.6056" height="22.2802" rx="5.8028" fill="#7A314D"/>
<ellipse cx="145.165" cy="91.8605" rx="9.02733" ry="9.02733" fill="#FDA541"/>
<ellipse cx="145.165" cy="86.9598" rx="11.4419" ry="11.4419" fill="#7A314D"/>
<path d="M156.607 86.9563C156.605 93.2766 151.482 98.3998 145.161 98.4016C144.7 98.4031 144.238 98.3735 143.78 98.313C149.528 97.6217 153.853 92.7453 153.853 86.9563C153.853 81.1674 149.528 76.291 143.78 75.5997C144.238 75.542 144.7 75.5135 145.161 75.5145C151.481 75.5145 156.605 80.6366 156.607 86.9563Z" fill="#8E4463"/>
<ellipse cx="81.4575" cy="95.1115" rx="10.0334" ry="11.9057" transform="rotate(-36.25 81.4575 95.1115)" fill="#FFB2BF"/>
<path d="M89.5304 91.5635C90.6149 92.9522 90.3684 94.9572 88.9797 96.0417C87.591 97.1263 85.5861 96.8798 84.5015 95.4911L70.6616 77.7704C69.577 76.3817 69.8235 74.3768 71.2122 73.2922C72.6009 72.2076 74.6059 72.4542 75.6904 73.8428L89.5304 91.5635Z" fill="#FFB2BF"/>
<ellipse opacity="0.38" rx="5.13266" ry="3.51954" transform="matrix(0.639169 -0.769066 0.769064 0.639172 205.656 168.445)" fill="#F9E0E5"/>
<path d="M261.105 269.134C264.028 276.225 260.652 284.342 253.563 287.27L246.557 290.158C243.633 283.064 247.014 274.942 254.108 272.018L261.105 269.134H261.105Z" fill="#969ECC"/>
<path d="M243.232 255.589C250.326 258.513 253.707 266.635 250.783 273.729L247.895 280.735C240.801 277.811 237.42 269.69 240.344 262.595L243.232 255.589Z" fill="#7986BF"/>
<path d="M246.576 290.157L239.569 287.269C232.475 284.345 229.094 276.223 232.018 269.129L239.034 272.021C246.123 274.948 249.498 283.066 246.576 290.157Z" fill="#969ECC"/>
<path d="M270.855 296.727C270.695 310.35 259.606 321.311 245.981 321.311C232.356 321.311 221.267 310.35 221.107 296.727C221.106 295.768 221.162 294.81 221.275 293.858C221.399 292.762 221.597 291.675 221.868 290.605H270.094C270.367 291.674 270.565 292.762 270.688 293.858C270.802 294.81 270.858 295.768 270.855 296.727Z" fill="#969ECC"/>
<rect x="218.052" y="284.094" width="57.0151" height="6.5105" rx="3.25525" fill="#7986BF"/>
<path d="M270.688 293.859H221.274C221.398 292.762 221.597 291.675 221.868 290.605H270.094C270.367 291.674 270.565 292.762 270.688 293.859Z" fill="#7986BF"/>
</svg>
